<?xml version="1.0" encoding="UTF-8"?><svg id="Layer_2" xmlns="http://www.w3.org/2000/svg" viewBox="0 0 258.33 361.66"><defs><style>.cls-1{fill:#b9c7d3;}.cls-2{stroke:#b9c7d3;stroke-miterlimit:10;stroke-width:3px;}.cls-2,.cls-3{fill:#e0a9cd;}.cls-4{fill:#231f20;font-family:FranklinGothic-Book, 'Franklin Gothic Book';font-size:24.11px;}.cls-5{fill:#f1d4e6;}.cls-6{fill:#c67ab3;}</style></defs><g id="Layer_1-2"><rect class="cls-5" width="258.33" height="361.66" rx="27.98" ry="27.98"/><rect class="cls-3" x="46.25" y="8.4" width="202.34" height="344.86" rx="16.17" ry="16.17"/><text class="cls-4" transform="translate(32.05 158.94) rotate(-90)"><tspan x="0" y="0">CARD NAME</tspan></text><ellipse class="cls-2" cx="145.27" cy="143.84" rx="36.51" ry="8.95"/><rect class="cls-3" x="130.82" y="125.25" width="28.89" height="18.59" rx="5.4" ry="5.4"/><path class="cls-1" d="M176.91,89.29c4.44-6.29,7.05-13.97,7.05-22.25,0-21.36-17.32-38.68-38.68-38.68s-38.68,17.32-38.68,38.68c0,8.29,2.61,15.96,7.05,22.25l31.64,54.79,31.64-54.79Z"/><path class="cls-6" d="M173.6,86.73c3.97-5.64,6.31-12.51,6.31-19.93,0-19.13-15.51-34.64-34.64-34.64s-34.64,15.51-34.64,34.64c0,7.42,2.34,14.29,6.31,19.93l28.33,49.07,28.33-49.07Z"/><circle class="cls-3" cx="145.27" cy="64.07" r="20.88"/></g></svg>