<?xml version="1.0" encoding="UTF-8"?>
<svg id="Layer_1" data-name="Layer 1" xmlns="http://www.w3.org/2000/svg" viewBox="0 0 512.7 512.7">
  <defs>
    <style>
      .cls-1 {
        fill: #fff;
      }

      .cls-2 {
        fill: #885b7a;
      }

      .cls-3 {
        fill: #b66728;
      }

      .cls-4 {
        fill: #40507b;
      }

      .cls-5 {
        fill: #11284c;
      }

      .cls-6 {
        fill: #bcbec0;
      }

      .cls-7 {
        fill: #887ba3;
      }
    </style>
  </defs>
  <circle class="cls-2" cx="256.35" cy="256.35" r="256.35"/>
  <rect class="cls-1" x="101.53" y="126.19" width="308.38" height="273.03" rx="34.02" ry="34.02"/>
  <rect class="cls-7" x="115.03" y="139.91" width="282.63" height="250.24" rx="34.02" ry="34.02"/>
  <rect class="cls-5" x="128.8" y="281.35" width="42.91" height="33.88"/>
  <rect class="cls-4" x="128.8" y="238" width="42.91" height="33.88"/>
  <rect class="cls-5" x="128.8" y="324.7" width="42.91" height="33.88"/>
  <rect class="cls-5" x="183" y="238" width="42.91" height="33.88"/>
  <rect class="cls-5" x="183" y="281.35" width="42.91" height="33.88"/>
  <rect class="cls-5" x="183" y="324.7" width="42.91" height="33.88"/>
  <rect class="cls-5" x="235.91" y="238" width="42.91" height="33.88"/>
  <rect class="cls-5" x="235.91" y="281.35" width="42.91" height="33.88"/>
  <rect class="cls-5" x="235.91" y="324.7" width="42.91" height="33.88"/>
  <rect class="cls-5" x="289.44" y="238" width="42.91" height="33.88"/>
  <rect class="cls-5" x="289.44" y="281.35" width="42.91" height="33.88"/>
  <rect class="cls-4" x="289.44" y="324.7" width="42.91" height="33.88"/>
  <rect class="cls-5" x="342.36" y="238" width="42.91" height="33.88"/>
  <rect class="cls-5" x="342.36" y="281.35" width="42.91" height="33.88"/>
  <rect class="cls-4" x="342.36" y="324.7" width="42.91" height="33.88"/>
  <path class="cls-5" d="M397.16,200.67H114.53v-26.74c0-18.79,15.23-34.02,34.02-34.02h214.6c18.79,0,34.02,15.23,34.02,34.02v26.74Z"/>
  <path class="cls-1" d="M394.66,299.76l-16.2-28.06c-2.68-4.64-1.09-10.57,3.55-13.25s10.57-1.09,13.25,3.55l16.2,28.06c2.68,4.64,1.09,10.57-3.55,13.25-4.64,2.68-10.57,1.09-13.25-3.55Z"/>
  <path class="cls-1" d="M397.62,267.33l-38.61,26.79c-5.48,3.8-.9,12.28,5.29,9.78l43.55-17.61c4.59-1.86,6.56-7.28,4.22-11.65l-2.35-4.4c-2.35-4.39-8-5.75-12.09-2.91Z"/>
  <path class="cls-6" d="M392.05,275.48l-31.23,21.67c-2,1.39-.33,4.49,1.93,3.57l35.21-14.23c1.13-.46,1.61-1.79,1.04-2.86l-3.98-7.43c-.58-1.08-1.96-1.41-2.97-.71Z"/>
  <rect class="cls-1" x="392.61" y="260.96" width="26.13" height="28.36" rx="2.04" ry="2.04" transform="translate(-83.22 239.7) rotate(-30)"/>
  <path class="cls-3" d="M398.43,297.1l-15.79-27.35c-1.41-2.44-.57-5.56,1.87-6.97,2.44-1.41,5.56-.57,6.97,1.87l15.79,27.35c1.41,2.44,.57,5.56-1.87,6.97-2.44,1.41-5.56,.57-6.97-1.87Z"/>
  <path class="cls-1" d="M416.61,288.83l-17.32-30c-2.86-4.96-1.16-11.3,3.79-14.16,4.96-2.86,11.3-1.16,14.16,3.79l17.32,30c2.86,4.96,1.16,11.3-3.79,14.16-4.96,2.86-11.3,1.16-14.16-3.79Z"/>
  <path class="cls-3" d="M420.65,285.98l-16.88-29.24c-1.51-2.61-.61-5.94,2-7.45,2.61-1.51,5.94-.61,7.45,2l16.88,29.24c1.51,2.61,.61,5.94-2,7.45s-5.94,.61-7.45-2Z"/>
  <rect class="cls-3" x="396.87" y="265.58" width="17.62" height="19.12" rx="2.04" ry="2.04" transform="translate(-83.22 239.7) rotate(-30)"/>
</svg>