<?xml version="1.0" encoding="UTF-8"?>
<svg id="Layer_1" data-name="Layer 1" xmlns="http://www.w3.org/2000/svg" viewBox="0 0 546.03 546.03">
  <defs>
    <style>
      .cls-1 {
        fill: #fff;
      }

      .cls-2 {
        fill: #a7a9ac;
      }

      .cls-3 {
        fill: #b66728;
      }

      .cls-4 {
        fill: #f5a01d;
      }

      .cls-5 {
        fill: #d1d3d4;
      }
    </style>
  </defs>
  <circle class="cls-3" cx="273.02" cy="273.02" r="273.02"/>
  <path class="cls-1" d="M462.32,437.09H203.25l-30.64-36.89c-14.82-17.85-22.93-40.31-22.93-63.51v-108.06c0-43.41-20.99-82.8-48.11-116.7l21.87-8.7,227.42-1.81,25.45,33.55c14.7,19.37,22.65,43.02,22.65,67.34v137.8c0,23.72,18.51,46.62,34.29,64.33l29.07,32.63Z"/>
  <path class="cls-1" d="M254.25,167.78H63.45v-11.35c0-29.38,23.81-53.19,53.19-53.19H254.25v64.54Z"/>
  <path class="cls-2" d="M212.94,159.08H73.55v-8.29c0-21.46,17.4-38.86,38.86-38.86h100.53v47.15Z"/>
  <path class="cls-5" d="M441.55,426.59H207.86l-28.72-34.58c-13.89-16.73-21.5-37.79-21.5-59.54v-101.29c0-40.7-13.85-80.18-39.27-111.96l-5.82-7.28h233.69l23.86,31.45c13.78,18.16,21.23,40.33,21.23,63.13v129.18c0,22.24,8.17,43.7,22.97,60.31l27.25,30.59Z"/>
  <path class="cls-1" d="M467.71,302.49l-114.17,63.35-37.26-.48,19.31-31.87,114.17-63.35c3.86-2.14,9.01-.22,11.51,4.28l8.9,16.03c2.5,4.5,1.4,9.89-2.46,12.03Z"/>
  <polyline class="cls-1" points="318.87 356.68 324.85 367.45 353.54 365.84 335.59 333.49"/>
  <path class="cls-4" d="M455.58,303.92l-97.5,54.11-30.72,1.58,17.6-25.23,97.5-54.11c3.29-1.83,7.44-.64,9.27,2.65l6.51,11.72c1.83,3.29,.64,7.44-2.65,9.27Z"/>
  <polyline class="cls-4" points="329.94 352.87 334.31 360.75 358.07 358.03 344.95 334.38"/>
</svg>