<?xml version="1.0" encoding="UTF-8"?>
<svg id="Layer_1" data-name="Layer 1" xmlns="http://www.w3.org/2000/svg" viewBox="0 0 505.89 505.89">
  <defs>
    <style>
      .cls-1 {
        fill: #fff;
      }

      .cls-2 {
        fill: #75ad98;
      }

      .cls-3 {
        fill: #436730;
      }
    </style>
  </defs>
  <circle class="cls-3" cx="252.95" cy="252.95" r="252.95"/>
  <polygon class="cls-1" points="252.95 476.13 410.32 311.59 95.57 311.59 252.95 476.13"/>
  <polygon class="cls-1" points="176.9 102.56 197.69 366.44 308.27 366.44 328.09 102.56 176.9 102.56"/>
  <polygon class="cls-1" points="152.81 182.1 152.81 41.63 252.95 81.52 353.09 41.63 353.09 182.1 252.95 238.46 152.81 182.1"/>
  <polygon class="cls-2" points="188.24 114.12 205.91 352.84 299.91 352.84 316.75 114.12 188.24 114.12"/>
  <polygon class="cls-2" points="252.95 461.55 386.73 321.68 119.17 321.68 252.95 461.55"/>
  <polygon class="cls-2" points="165.72 176.89 165.72 58.37 252.95 92.02 340.17 58.37 340.17 176.89 252.95 224.45 165.72 176.89"/>
</svg>