<svg xmlns="http://www.w3.org/2000/svg" id="Layer_2" viewBox="0 0 742.63 742.59"><defs><style>.cls-1{fill:#fff;}.cls-2{fill:none;stroke-width:3px;}.cls-2,.cls-3,.cls-4{stroke:#fff;stroke-miterlimit:10;}.cls-3{fill:#cfcecb;}.cls-3,.cls-4{stroke-width:3px;}.cls-4{fill:#a7a9ac;}.cls-5{fill:#004990;font-family:'Franklin Gothic';font-size:20.74px;}.cls-6{fill:#11284c;}</style></defs><g id="Layer_1-2"><g><circle class="cls-6" cx="371.82" cy="370.94" r="264.56"/><circle class="cls-4" cx="371.63" cy="370.94" r="199.8"/><text class="cls-5" transform="translate(416.81 85.39) rotate(-171.67)"><tspan x="0" y="0">J</tspan></text><text class="cls-5" transform="translate(408.99 84.2) rotate(-173.71)"><tspan x="0" y="0">A</tspan></text><text class="cls-5" transform="translate(396.07 82.78) rotate(-176.38)"><tspan x="0" y="0">N</tspan></text><text class="cls-5" transform="translate(382.28 81.92) rotate(-179.14)"><tspan x="0" y="0">U</tspan></text><text class="cls-5" transform="translate(368.71 81.73) rotate(178.24)"><tspan x="0" y="0">A</tspan></text><text class="cls-5" transform="translate(355.72 82.12) rotate(175.54)"><tspan x="0" y="0">R</tspan></text><text class="cls-5" transform="translate(342.08 83.22) rotate(173.1)"><tspan x="0" y="0">Y</tspan></text><text class="cls-5" transform="translate(331.08 84.59) rotate(171.45)"><tspan x="0" y="0"> </tspan></text><text class="cls-5" transform="translate(325.8 85.39) rotate(170.39)"><tspan x="0" y="0"> </tspan></text><text class="cls-5" transform="translate(320.51 86.28) rotate(169.33)"><tspan x="0" y="0"> </tspan></text><text class="cls-5" transform="translate(315.27 87.27) rotate(168.27)"><tspan x="0" y="0"> </tspan></text><text class="cls-5" transform="translate(310.03 88.36) rotate(167.21)"><tspan x="0" y="0"> </tspan></text><text class="cls-5" transform="translate(304.84 89.54) rotate(166.16)"><tspan x="0" y="0"> </tspan></text><text class="cls-5" transform="translate(299.66 90.82) rotate(165.1)"><tspan x="0" y="0"> </tspan></text><text class="cls-5" transform="translate(294.47 92.2) rotate(164.04)"><tspan x="0" y="0"> </tspan></text><text class="cls-5" transform="translate(289.34 93.67) rotate(162.98)"><tspan x="0" y="0"> </tspan></text><text class="cls-5" transform="translate(284.22 95.24) rotate(161.93)"><tspan x="0" y="0"> </tspan></text><text class="cls-5" transform="translate(279.16 96.9) rotate(160.87)"><tspan x="0" y="0"> </tspan></text><text class="cls-5" transform="translate(274.01 98.64) rotate(159.18)"><tspan x="0" y="0">F</tspan></text><text class="cls-5" transform="translate(262.92 102.86) rotate(156.81)"><tspan x="0" y="0">E</tspan></text><text class="cls-5" transform="translate(251.69 107.65) rotate(154.24)"><tspan x="0" y="0">B</tspan></text><text class="cls-5" transform="translate(239.15 113.72) rotate(151.49)"><tspan x="0" y="0">R</tspan></text><text class="cls-5" transform="translate(227.01 120.32) rotate(148.79)"><tspan x="0" y="0">U</tspan></text><text class="cls-5" transform="translate(215.41 127.36) rotate(146.2)"><tspan x="0" y="0">A</tspan></text><text class="cls-5" transform="translate(204.61 134.58) rotate(143.54)"><tspan x="0" y="0">R</tspan></text><text class="cls-5" transform="translate(193.63 142.74) rotate(141.12)"><tspan x="0" y="0">Y</tspan></text><text class="cls-5" transform="translate(185.04 149.72) rotate(139.48)"><tspan x="0" y="0"> </tspan></text><text class="cls-5" transform="translate(180.98 153.19) rotate(138.43)"><tspan x="0" y="0"> </tspan></text><text class="cls-5" transform="translate(176.97 156.75) rotate(137.37)"><tspan x="0" y="0"> </tspan></text><text class="cls-5" transform="translate(173.05 160.36) rotate(136.31)"><tspan x="0" y="0"> </tspan></text><text class="cls-5" transform="translate(169.18 164.06) rotate(135.24)"><tspan x="0" y="0"> </tspan></text><text class="cls-5" transform="translate(165.39 167.82) rotate(134.18)"><tspan x="0" y="0"> </tspan></text><text class="cls-5" transform="translate(161.66 171.66) rotate(133.12)"><tspan x="0" y="0"> </tspan></text><text class="cls-5" transform="translate(158.02 175.55) rotate(132.06)"><tspan x="0" y="0"> </tspan></text><text class="cls-5" transform="translate(154.43 179.53) rotate(130.99)"><tspan x="0" y="0"> </tspan></text><text class="cls-5" transform="translate(150.93 183.56) rotate(129.93)"><tspan x="0" y="0"> </tspan></text><text class="cls-5" transform="translate(147.5 187.67) rotate(128.86)"><tspan x="0" y="0"> </tspan></text><text class="cls-5" transform="translate(144.15 191.82) rotate(127.8)"><tspan x="0" y="0"> </tspan></text><text class="cls-5" transform="translate(140.66 196.12) rotate(125.43)"><tspan x="0" y="0">M</tspan></text><text class="cls-5" transform="translate(130.1 211.11) rotate(122.3)"><tspan x="0" y="0">A</tspan></text><text class="cls-5" transform="translate(123.15 222.1) rotate(119.6)"><tspan x="0" y="0">R</tspan></text><text class="cls-5" transform="translate(116.36 234.06) rotate(116.93)"><tspan x="0" y="0">C</tspan></text><text class="cls-5" transform="translate(110.28 246.05) rotate(114.22)"><tspan x="0" y="0">H</tspan></text><text class="cls-5" transform="translate(104.72 258.58) rotate(112.34)"><tspan x="0" y="0"> </tspan></text><text class="cls-5" transform="translate(102.69 263.53) rotate(111.28)"><tspan x="0" y="0"> </tspan></text><text class="cls-5" transform="translate(100.75 268.52) rotate(110.24)"><tspan x="0" y="0"> </tspan></text><text class="cls-5" transform="translate(98.9 273.53) rotate(109.19)"><tspan x="0" y="0"> </tspan></text><text class="cls-5" transform="translate(97.2 278.46) rotate(108.52)"><tspan x="0" y="0"> </tspan></text><text class="cls-5" transform="translate(95.45 283.67) rotate(106.66)"><tspan x="0" y="0"> </tspan></text><text class="cls-5" transform="translate(93.95 288.64) rotate(106.1)"><tspan x="0" y="0"> </tspan></text><text class="cls-5" transform="translate(92.47 293.77) rotate(105.06)"><tspan x="0" y="0"> </tspan></text><text class="cls-5" transform="translate(91.08 298.94) rotate(104.01)"><tspan x="0" y="0"> </tspan></text><text class="cls-5" transform="translate(89.78 304.14) rotate(102.96)"><tspan x="0" y="0"> </tspan></text><text class="cls-5" transform="translate(88.58 309.34) rotate(101.91)"><tspan x="0" y="0"> </tspan></text><text class="cls-5" transform="translate(87.48 314.58) rotate(100.85)"><tspan x="0" y="0"> </tspan></text><text class="cls-5" transform="translate(86.48 319.82) rotate(99.8)"><tspan x="0" y="0"> </tspan></text><text class="cls-5" transform="translate(85.57 325.08) rotate(98.74)"><tspan x="0" y="0"> </tspan></text><text class="cls-5" transform="translate(84.76 330.38) rotate(97.68)"><tspan x="0" y="0"> </tspan></text><text class="cls-5" transform="translate(84.05 335.67) rotate(96.61)"><tspan x="0" y="0"> </tspan></text><text class="cls-5" transform="translate(83.37 341.06) rotate(94.79)"><tspan x="0" y="0">A</tspan></text><text class="cls-5" transform="translate(82.29 354.03) rotate(92.21)"><tspan x="0" y="0">P</tspan></text><text class="cls-5" transform="translate(81.79 366.97) rotate(89.51)"><tspan x="0" y="0">R</tspan></text><text class="cls-5" transform="translate(81.98 380.89) rotate(87.5)"><tspan x="0" y="0">I</tspan></text><text class="cls-5" transform="translate(82.22 387.15) rotate(85.81)"><tspan x="0" y="0">L</tspan></text><text class="cls-5" transform="translate(83.04 397.79) rotate(84.2)"><tspan x="0" y="0"> </tspan></text><text class="cls-5" transform="translate(83.58 403.1) rotate(83.14)"><tspan x="0" y="0"> </tspan></text><text class="cls-5" transform="translate(84.22 408.41) rotate(82.08)"><tspan x="0" y="0"> </tspan></text><text class="cls-5" transform="translate(84.96 413.71) rotate(81.01)"><tspan x="0" y="0"> </tspan></text><text class="cls-5" transform="translate(85.8 418.98) rotate(79.95)"><tspan x="0" y="0"> </tspan></text><text class="cls-5" transform="translate(86.73 424.24) rotate(78.89)"><tspan x="0" y="0"> </tspan></text><text class="cls-5" transform="translate(87.76 429.49) rotate(77.83)"><tspan x="0" y="0"> </tspan></text><text class="cls-5" transform="translate(88.89 434.72) rotate(76.77)"><tspan x="0" y="0"> </tspan></text><text class="cls-5" transform="translate(90.12 439.92) rotate(75.71)"><tspan x="0" y="0"> </tspan></text><text class="cls-5" transform="translate(91.44 445.1) rotate(74.66)"><tspan x="0" y="0"> </tspan></text><text class="cls-5" transform="translate(92.85 450.25) rotate(73.6)"><tspan x="0" y="0"> </tspan></text><text class="cls-5" transform="translate(94.36 455.36) rotate(72.55)"><tspan x="0" y="0"> </tspan></text><text class="cls-5" transform="translate(95.97 460.47) rotate(71.49)"><tspan x="0" y="0"> </tspan></text><text class="cls-5" transform="translate(97.67 465.55) rotate(70.43)"><tspan x="0" y="0"> </tspan></text><text class="cls-5" transform="translate(99.45 470.57) rotate(69.38)"><tspan x="0" y="0"> </tspan></text><text class="cls-5" transform="translate(101.34 475.57) rotate(68.33)"><tspan x="0" y="0"> </tspan></text><text class="cls-5" transform="translate(103.31 480.54) rotate(67.28)"><tspan x="0" y="0"> </tspan></text><text class="cls-5" transform="translate(105.38 485.47) rotate(66.22)"><tspan x="0" y="0"> </tspan></text><text class="cls-5" transform="translate(107.54 490.36) rotate(65.17)"><tspan x="0" y="0"> </tspan></text><text class="cls-5" transform="translate(109.75 495.44) rotate(62.84)"><tspan x="0" y="0">M</tspan></text><text class="cls-5" transform="translate(118.17 511.68) rotate(59.76)"><tspan x="0" y="0">A</tspan></text><text class="cls-5" transform="translate(124.21 522.01) rotate(57.58)"><tspan x="0" y="0">Y</tspan></text><text class="cls-5" transform="translate(130.16 531.31) rotate(55.96)"><tspan x="0" y="0"> </tspan></text><text class="cls-5" transform="translate(133.16 535.74) rotate(54.9)"><tspan x="0" y="0"> </tspan></text><text class="cls-5" transform="translate(136.24 540.12) rotate(53.84)"><tspan x="0" y="0"> </tspan></text><text class="cls-5" transform="translate(139.38 544.43) rotate(52.79)"><tspan x="0" y="0"> </tspan></text><text class="cls-5" transform="translate(142.63 548.69) rotate(51.73)"><tspan x="0" y="0"> </tspan></text><text class="cls-5" transform="translate(145.93 552.88) rotate(50.68)"><tspan x="0" y="0"> </tspan></text><text class="cls-5" transform="translate(149.32 557.01) rotate(49.62)"><tspan x="0" y="0"> </tspan></text><text class="cls-5" transform="translate(152.78 561.08) rotate(48.57)"><tspan x="0" y="0"> </tspan></text><text class="cls-5" transform="translate(156.32 565.09) rotate(47.51)"><tspan x="0" y="0"> </tspan></text><text class="cls-5" transform="translate(159.92 569.02) rotate(46.45)"><tspan x="0" y="0"> </tspan></text><text class="cls-5" transform="translate(163.62 572.91) rotate(45.39)"><tspan x="0" y="0"> </tspan></text><text class="cls-5" transform="translate(167.39 576.72) rotate(44.32)"><tspan x="0" y="0"> </tspan></text><text class="cls-5" transform="translate(171.2 580.44) rotate(43.26)"><tspan x="0" y="0"> </tspan></text><text class="cls-5" transform="translate(175.09 584.11) rotate(42.2)"><tspan x="0" y="0"> </tspan></text><text class="cls-5" transform="translate(179.07 587.71) rotate(41.13)"><tspan x="0" y="0"> </tspan></text><text class="cls-5" transform="translate(183.09 591.22) rotate(40.07)"><tspan x="0" y="0"> </tspan></text><text class="cls-5" transform="translate(187.19 594.66) rotate(39)"><tspan x="0" y="0"> </tspan></text><text class="cls-5" transform="translate(191.33 598.02) rotate(37.94)"><tspan x="0" y="0"> </tspan></text><text class="cls-5" transform="translate(195.54 601.3) rotate(36.87)"><tspan x="0" y="0"> </tspan></text><text class="cls-5" transform="translate(199.83 604.51) rotate(35.8)"><tspan x="0" y="0"> </tspan></text><text class="cls-5" transform="translate(204.19 607.68) rotate(34.46)"><tspan x="0" y="0">J</tspan></text><text class="cls-5" transform="translate(210.93 612.36) rotate(32.26)"><tspan x="0" y="0">U</tspan></text><text class="cls-5" transform="translate(222.69 619.76) rotate(29.5)"><tspan x="0" y="0">N</tspan></text><text class="cls-5" transform="translate(234.72 626.54) rotate(26.91)"><tspan x="0" y="0">E</tspan></text><text class="cls-5" transform="translate(245.51 631.96) rotate(25.18)"><tspan x="0" y="0"> </tspan></text><text class="cls-5" transform="translate(250.34 634.23) rotate(24.12)"><tspan x="0" y="0"> </tspan></text><text class="cls-5" transform="translate(255.23 636.41) rotate(23.07)"><tspan x="0" y="0"> </tspan></text><text class="cls-5" transform="translate(260.14 638.51) rotate(22.01)"><tspan x="0" y="0"> </tspan></text><text class="cls-5" transform="translate(265.09 640.5) rotate(20.97)"><tspan x="0" y="0"> </tspan></text><text class="cls-5" transform="translate(270.09 642.42) rotate(19.92)"><tspan x="0" y="0"> </tspan></text><text class="cls-5" transform="translate(275.12 644.24) rotate(18.88)"><tspan x="0" y="0"> </tspan></text><text class="cls-5" transform="translate(280.07 645.9) rotate(18.52)"><tspan x="0" y="0"> </tspan></text><text class="cls-5" transform="translate(285.26 647.61) rotate(16.66)"><tspan x="0" y="0"> </tspan></text><text class="cls-5" transform="translate(290.34 649.13) rotate(15.77)"><tspan x="0" y="0"> </tspan></text><text class="cls-5" transform="translate(295.47 650.58) rotate(14.73)"><tspan x="0" y="0"> </tspan></text><text class="cls-5" transform="translate(300.64 651.94) rotate(13.68)"><tspan x="0" y="0"> </tspan></text><text class="cls-5" transform="translate(305.84 653.2) rotate(12.63)"><tspan x="0" y="0"> </tspan></text><text class="cls-5" transform="translate(311.05 654.37) rotate(11.58)"><tspan x="0" y="0"> </tspan></text><text class="cls-5" transform="translate(316.28 655.44) rotate(10.52)"><tspan x="0" y="0"> </tspan></text><text class="cls-5" transform="translate(321.55 656.42) rotate(9.46)"><tspan x="0" y="0"> </tspan></text><text class="cls-5" transform="translate(326.82 657.29) rotate(8.4)"><tspan x="0" y="0"> </tspan></text><text class="cls-5" transform="translate(332.11 658.07) rotate(7.34)"><tspan x="0" y="0"> </tspan></text><text class="cls-5" transform="translate(337.4 658.75) rotate(6.28)"><tspan x="0" y="0"> </tspan></text><text class="cls-5" transform="translate(342.72 659.34) rotate(5.21)"><tspan x="0" y="0"> </tspan></text><text class="cls-5" transform="translate(348.1 659.84) rotate(3.86)"><tspan x="0" y="0">J</tspan></text><text class="cls-5" transform="translate(356.31 660.44) rotate(1.67)"><tspan x="0" y="0">U</tspan></text><text class="cls-5" transform="translate(370.11 660.81) rotate(-.78)"><tspan x="0" y="0">L</tspan></text><text class="cls-5" transform="translate(379.57 660.7) rotate(-2.71)"><tspan x="0" y="0">Y</tspan></text><text class="cls-5" transform="translate(390.59 660.13) rotate(-4.35)"><tspan x="0" y="0"> </tspan></text><text class="cls-5" transform="translate(395.92 659.72) rotate(-5.41)"><tspan x="0" y="0"> </tspan></text><text class="cls-5" transform="translate(401.24 659.22) rotate(-6.48)"><tspan x="0" y="0"> </tspan></text><text class="cls-5" transform="translate(406.59 658.61) rotate(-7.55)"><tspan x="0" y="0"> </tspan></text><text class="cls-5" transform="translate(411.86 657.91) rotate(-8.61)"><tspan x="0" y="0"> </tspan></text><text class="cls-5" transform="translate(417.15 657.11) rotate(-9.67)"><tspan x="0" y="0"> </tspan></text><text class="cls-5" transform="translate(422.41 656.21) rotate(-10.73)"><tspan x="0" y="0"> </tspan></text><text class="cls-5" transform="translate(427.67 655.21) rotate(-11.79)"><tspan x="0" y="0"> </tspan></text><text class="cls-5" transform="translate(432.91 654.12) rotate(-12.85)"><tspan x="0" y="0"> </tspan></text><text class="cls-5" transform="translate(438.12 652.93) rotate(-13.91)"><tspan x="0" y="0"> </tspan></text><text class="cls-5" transform="translate(443.31 651.64) rotate(-14.97)"><tspan x="0" y="0"> </tspan></text><text class="cls-5" transform="translate(448.47 650.26) rotate(-16.02)"><tspan x="0" y="0"> </tspan></text><text class="cls-5" transform="translate(453.59 648.79) rotate(-17.08)"><tspan x="0" y="0"> </tspan></text><text class="cls-5" transform="translate(458.69 647.22) rotate(-18.13)"><tspan x="0" y="0"> </tspan></text><text class="cls-5" transform="translate(463.8 645.54) rotate(-19.19)"><tspan x="0" y="0"> </tspan></text><text class="cls-5" transform="translate(468.83 643.79) rotate(-20.24)"><tspan x="0" y="0"> </tspan></text><text class="cls-5" transform="translate(473.85 641.94) rotate(-21.29)"><tspan x="0" y="0"> </tspan></text><text class="cls-5" transform="translate(478.94 640.02) rotate(-23.1)"><tspan x="0" y="0">A</tspan></text><text class="cls-5" transform="translate(490.58 635.06) rotate(-25.67)"><tspan x="0" y="0">U</tspan></text><text class="cls-5" transform="translate(503.06 629.05) rotate(-28.38)"><tspan x="0" y="0">G</tspan></text><text class="cls-5" transform="translate(515.14 622.51) rotate(-31.1)"><tspan x="0" y="0">U</tspan></text><text class="cls-5" transform="translate(526.99 615.34) rotate(-33.69)"><tspan x="0" y="0">S</tspan></text><text class="cls-5" transform="translate(537.37 608.38) rotate(-35.96)"><tspan x="0" y="0">T</tspan></text><text class="cls-5" transform="translate(545.74 602.26) rotate(-37.52)"><tspan x="0" y="0"> </tspan></text><text class="cls-5" transform="translate(549.97 599.02) rotate(-38.57)"><tspan x="0" y="0"> </tspan></text><text class="cls-5" transform="translate(554.16 595.67) rotate(-39.63)"><tspan x="0" y="0"> </tspan></text><text class="cls-5" transform="translate(558.28 592.26) rotate(-40.69)"><tspan x="0" y="0"> </tspan></text><text class="cls-5" transform="translate(562.33 588.77) rotate(-41.75)"><tspan x="0" y="0"> </tspan></text><text class="cls-5" transform="translate(566.3 585.23) rotate(-42.8)"><tspan x="0" y="0"> </tspan></text><text class="cls-5" transform="translate(570.23 581.59) rotate(-43.87)"><tspan x="0" y="0"> </tspan></text><text class="cls-5" transform="translate(574.1 577.87) rotate(-44.93)"><tspan x="0" y="0"> </tspan></text><text class="cls-5" transform="translate(577.88 574.1) rotate(-45.99)"><tspan x="0" y="0"> </tspan></text><text class="cls-5" transform="translate(581.59 570.25) rotate(-47.05)"><tspan x="0" y="0"> </tspan></text><text class="cls-5" transform="translate(585.34 566.3) rotate(-48.82)"><tspan x="0" y="0">S</tspan></text><text class="cls-5" transform="translate(593.5 556.95) rotate(-51.27)"><tspan x="0" y="0">E</tspan></text><text class="cls-5" transform="translate(601.12 547.45) rotate(-53.77)"><tspan x="0" y="0">P</tspan></text><text class="cls-5" transform="translate(608.7 537.05) rotate(-56.1)"><tspan x="0" y="0">T</tspan></text><text class="cls-5" transform="translate(614.56 528.34) rotate(-58.36)"><tspan x="0" y="0">E</tspan></text><text class="cls-5" transform="translate(621.07 517.92) rotate(-61.41)"><tspan x="0" y="0">M</tspan></text><text class="cls-5" transform="translate(629.77 501.8) rotate(-64.61)"><tspan x="0" y="0">B</tspan></text><text class="cls-5" transform="translate(635.69 489.24) rotate(-67.19)"><tspan x="0" y="0">E</tspan></text><text class="cls-5" transform="translate(640.44 477.99) rotate(-69.76)"><tspan x="0" y="0">R</tspan></text><text class="cls-5" transform="translate(645.16 464.94) rotate(-71.48)"><tspan x="0" y="0"> </tspan></text><text class="cls-5" transform="translate(646.92 459.77) rotate(-73.34)"><tspan x="0" y="0"> </tspan></text><text class="cls-5" transform="translate(648.45 454.74) rotate(-73.73)"><tspan x="0" y="0"> </tspan></text><text class="cls-5" transform="translate(649.94 449.64) rotate(-74.76)"><tspan x="0" y="0"> </tspan></text><text class="cls-5" transform="translate(651.34 444.47) rotate(-75.81)"><tspan x="0" y="0"> </tspan></text><text class="cls-5" transform="translate(652.65 439.3) rotate(-76.86)"><tspan x="0" y="0"> </tspan></text><text class="cls-5" transform="translate(653.87 434.1) rotate(-77.91)"><tspan x="0" y="0"> </tspan></text><text class="cls-5" transform="translate(654.98 428.86) rotate(-78.97)"><tspan x="0" y="0"> </tspan></text><text class="cls-5" transform="translate(656.01 423.62) rotate(-80.02)"><tspan x="0" y="0"> </tspan></text><text class="cls-5" transform="translate(656.93 418.36) rotate(-81.08)"><tspan x="0" y="0"> </tspan></text><text class="cls-5" transform="translate(657.84 412.98) rotate(-82.96)"><tspan x="0" y="0">O</tspan></text><text class="cls-5" transform="translate(659.5 399.39) rotate(-85.67)"><tspan x="0" y="0">C</tspan></text><text class="cls-5" transform="translate(660.47 386.08) rotate(-88.04)"><tspan x="0" y="0">T</tspan></text><text class="cls-5" transform="translate(660.86 375.56) rotate(-90.45)"><tspan x="0" y="0">O</tspan></text><text class="cls-5" transform="translate(660.74 361.89) rotate(-93.2)"><tspan x="0" y="0">B</tspan></text><text class="cls-5" transform="translate(659.94 348) rotate(-95.81)"><tspan x="0" y="0">E</tspan></text><text class="cls-5" transform="translate(658.71 335.86) rotate(-98.42)"><tspan x="0" y="0">R</tspan></text><text class="cls-5" transform="translate(656.6 322.1) rotate(-100.34)"><tspan x="0" y="0"> </tspan></text><text class="cls-5" transform="translate(655.64 316.86) rotate(-101.4)"><tspan x="0" y="0"> </tspan></text><text class="cls-5" transform="translate(654.58 311.61) rotate(-102.46)"><tspan x="0" y="0"> </tspan></text><text class="cls-5" transform="translate(653.43 306.39) rotate(-103.52)"><tspan x="0" y="0"> </tspan></text><text class="cls-5" transform="translate(652.18 301.19) rotate(-104.58)"><tspan x="0" y="0"> </tspan></text><text class="cls-5" transform="translate(650.83 296.02) rotate(-105.63)"><tspan x="0" y="0"> </tspan></text><text class="cls-5" transform="translate(649.39 290.89) rotate(-106.69)"><tspan x="0" y="0"> </tspan></text><text class="cls-5" transform="translate(647.85 285.75) rotate(-107.75)"><tspan x="0" y="0"> </tspan></text><text class="cls-5" transform="translate(646.22 280.65) rotate(-108.8)"><tspan x="0" y="0"> </tspan></text><text class="cls-5" transform="translate(644.52 275.47) rotate(-110.69)"><tspan x="0" y="0">N</tspan></text><text class="cls-5" transform="translate(639.63 262.55) rotate(-113.4)"><tspan x="0" y="0">O</tspan></text><text class="cls-5" transform="translate(634.31 250.31) rotate(-115.85)"><tspan x="0" y="0">V</tspan></text><text class="cls-5" transform="translate(629.13 239.63) rotate(-118.22)"><tspan x="0" y="0">E</tspan></text><text class="cls-5" transform="translate(623.39 228.78) rotate(-121.22)"><tspan x="0" y="0">M</tspan></text><text class="cls-5" transform="translate(613.83 213.15) rotate(-124.4)"><tspan x="0" y="0">B</tspan></text><text class="cls-5" transform="translate(605.96 201.71) rotate(-126.98)"><tspan x="0" y="0">E</tspan></text><text class="cls-5" transform="translate(598.62 191.94) rotate(-129.57)"><tspan x="0" y="0">R</tspan></text><text class="cls-5" transform="translate(589.71 181.27) rotate(-131.48)"><tspan x="0" y="0"> </tspan></text><text class="cls-5" transform="translate(586.16 177.27) rotate(-132.54)"><tspan x="0" y="0"> </tspan></text><text class="cls-5" transform="translate(582.54 173.32) rotate(-133.6)"><tspan x="0" y="0"> </tspan></text><text class="cls-5" transform="translate(578.84 169.44) rotate(-134.67)"><tspan x="0" y="0"> </tspan></text><text class="cls-5" transform="translate(575.11 165.67) rotate(-135.72)"><tspan x="0" y="0"> </tspan></text><text class="cls-5" transform="translate(571.26 161.91) rotate(-136.79)"><tspan x="0" y="0"> </tspan></text><text class="cls-5" transform="translate(567.37 158.27) rotate(-137.85)"><tspan x="0" y="0"> </tspan></text><text class="cls-5" transform="translate(563.4 154.67) rotate(-138.92)"><tspan x="0" y="0"> </tspan></text><text class="cls-5" transform="translate(559.31 151.02) rotate(-140.83)"><tspan x="0" y="0">D</tspan></text><text class="cls-5" transform="translate(548.58 142.32) rotate(-143.43)"><tspan x="0" y="0">E</tspan></text><text class="cls-5" transform="translate(538.77 135.04) rotate(-145.98)"><tspan x="0" y="0">C</tspan></text><text class="cls-5" transform="translate(527.64 127.55) rotate(-148.54)"><tspan x="0" y="0">E</tspan></text><text class="cls-5" transform="translate(517.21 121.09) rotate(-151.58)"><tspan x="0" y="0">M</tspan></text><text class="cls-5" transform="translate(501.06 112.43) rotate(-154.79)"><tspan x="0" y="0">B</tspan></text><text class="cls-5" transform="translate(488.46 106.53) rotate(-157.37)"><tspan x="0" y="0">E</tspan></text><text class="cls-5" transform="translate(477.21 101.83) rotate(-159.94)"><tspan x="0" y="0">R</tspan></text><g><line class="cls-2" x1="300.39" y1="442.58" x2="210.53" y2="532.43"/><line class="cls-2" x1="274.29" y1="397.37" x2="151.54" y2="430.26"/><line class="cls-2" x1="274.29" y1="345.17" x2="151.54" y2="312.28"/><line class="cls-2" x1="300.39" y1="299.97" x2="210.53" y2="210.11"/><line class="cls-2" x1="345.59" y1="273.87" x2="312.7" y2="151.12"/><line class="cls-2" x1="397.79" y1="273.87" x2="430.68" y2="151.12"/><line class="cls-2" x1="443" y1="299.97" x2="532.85" y2="210.11"/><line class="cls-2" x1="469.1" y1="345.17" x2="591.84" y2="312.28"/><line class="cls-2" x1="469.1" y1="397.37" x2="591.84" y2="430.26"/><line class="cls-2" x1="443" y1="442.58" x2="532.86" y2="532.43"/><line class="cls-2" x1="397.79" y1="468.67" x2="430.68" y2="591.42"/><line class="cls-2" x1="345.59" y1="468.67" x2="312.7" y2="591.42"/><g id="_Radial_Repeat_"><line class="cls-2" x1="443" y1="299.97" x2="532.85" y2="210.11"/></g></g><g><polyline class="cls-1" points="291.58 449.36 183.16 557.78 185.28 559.9 293.7 451.48"/><polyline class="cls-1" points="263.34 398.89 115.23 438.57 116.01 441.47 264.11 401.79"/><polyline class="cls-1" points="264.12 341.06 116.01 301.38 115.23 304.28 263.34 343.96"/><polyline class="cls-1" points="293.7 291.37 185.28 182.95 183.16 185.07 291.58 293.49"/><polyline class="cls-1" points="344.17 263.13 304.48 115.03 301.59 115.8 341.27 263.91"/><polyline class="cls-1" points="402 263.91 441.68 115.8 438.78 115.03 399.1 263.13"/><polyline class="cls-1" points="451.69 293.49 560.11 185.07 557.99 182.95 449.56 291.37"/><polyline class="cls-1" points="479.93 343.96 628.03 304.28 627.26 301.38 479.15 341.06"/><polyline class="cls-1" points="479.15 401.79 627.26 441.47 628.03 438.57 479.93 398.89"/><polyline class="cls-1" points="449.56 451.48 557.99 559.9 560.11 557.78 451.69 449.36"/><polyline class="cls-1" points="399.1 479.72 438.78 627.82 441.68 627.05 402 478.94"/><polyline class="cls-1" points="341.27 478.94 301.59 627.05 304.48 627.83 344.17 479.72"/></g><circle class="cls-3" cx="371.63" cy="370.94" r="112.06"/></g></g></svg>