<?xml version="1.0" encoding="UTF-8"?><svg id="Layer_2" xmlns="http://www.w3.org/2000/svg" viewBox="0 0 258.33 361.66"><defs><style>.cls-1{fill:#e9945b;}.cls-2{fill:#b66728;}.cls-3{fill:#cfcecb;}.cls-4{fill:#dd7933;}</style></defs><g id="Layer_1-2"><path class="cls-2" d="M27.98,0H230.34c15.45,0,27.98,12.54,27.98,27.98V333.67c0,15.45-12.54,27.98-27.98,27.98H27.98c-15.44,0-27.98-12.54-27.98-27.98V27.98C0,12.54,12.54,0,27.98,0Z"/><path class="cls-3" d="M196.71,210.71c-6.34-1.6-13.2-3.09-20.55-4.36-7.31-1.27-14.25-2.16-20.74-2.79,8.08-1.34,16.51-2.96,25.24-4.92,5.73-1.29,11.27-2.65,16.63-4.07,.16-6.65-.25-26.03-13.54-44.84-16.11-22.81-39.73-28.6-45.4-29.83-.17-1.15-.95-5.4-4.75-8.69-3.75-3.24-7.97-3.41-9.34-3.44-2.16-.05-6.68,.3-10.49,3.77-3.54,3.22-4.37,7.22-4.59,8.52-4.72,.99-32.27,7.23-47.7,33.6-10.03,17.14-9.75,33.93-9.24,40.8,4.94,1.6,10.27,3.12,15.95,4.48,9.77,2.33,18.89,3.75,27.1,4.59-6,.25-12.47,.76-19.34,1.64-7.93,1.02-15.24,2.38-21.85,3.9-2.55,.79-20.86,6.48-20.65,15.84,.04,1.85-.84,8.55,20.94,14.87,14.46,4.2,47.03,7.86,72.82,7.86s59.22-4.48,72.61-9.07c10.98-3.77,15.29-8.31,14.81-14.97-.4-5.51-7.7-10.54-17.92-12.89Z"/><ellipse class="cls-4" cx="124.24" cy="224.74" rx="83.75" ry="17.01"/><ellipse class="cls-1" cx="124.24" cy="223.98" rx="67.28" ry="13.66"/><path class="cls-4" d="M191.51,190.86c-16.3,4.64-39.22,9.35-66.84,9.4-28.04,.05-51.28-4.71-67.71-9.4,0-36.91,30.37-67.28,67.28-67.28,36.91,0,67.28,30.37,67.28,67.28Z"/><path class="cls-4" d="M134.33,123.64c0,5.58-4.52,10.1-10.1,10.1s-10.1-4.52-10.1-10.1,4.52-10.1,10.1-10.1,10.1,4.52,10.1,10.1Z"/></g></svg>