<?xml version="1.0" encoding="UTF-8"?><svg id="Layer_2" xmlns="http://www.w3.org/2000/svg" viewBox="0 0 258.33 361.66"><defs><style>.cls-1{fill:#b9c7d3;}.cls-2{fill:#f2a659;}.cls-3{fill:#cd8229;}.cls-4{fill:#e89232;}</style></defs><g id="Layer_1-2"><path class="cls-3" d="M27.98,0H230.34c15.45,0,27.98,12.54,27.98,27.98V333.67c0,15.45-12.54,27.98-27.98,27.98H27.98c-15.45,0-27.98-12.54-27.98-27.98V27.98C0,12.54,12.54,0,27.98,0Z"/><path class="cls-4" d="M192.17,122.06c-6.68-10.33-21.11-12.89-32.22-5.7-6.44,4.16-10.33,10.67-11.19,17.42-27.52,19.09-55.03,38.18-82.55,57.26l2.49,3.85-3.46,2.24c-2.46,1.59-3.17,4.88-1.58,7.34l.59,.92c1.59,2.46,4.88,3.17,7.34,1.58l3.46-2.24c.83,1.28,1.66,2.57,2.49,3.85,28.71-17.25,57.41-34.5,86.12-51.75,6.51,1.99,14.05,1.11,20.48-3.05,11.12-7.19,14.72-21.39,8.04-31.72Z"/><path class="cls-1" d="M192.17,122.06l2.18-1.41c-2.31-3.58-5.46-6.33-9.05-8.18-3.59-1.85-7.61-2.79-11.72-2.79-5.11,0-10.36,1.47-15.05,4.5-7.08,4.57-11.4,11.76-12.36,19.27l2.57,.33-1.48-2.13c-27.52,19.09-55.03,38.18-82.55,57.26l-2.06,1.43,1.36,2.11,2.49,3.85,2.18-1.41-1.41-2.18-3.46,2.24c-2.34,1.51-3.62,4.06-3.61,6.64,0,1.47,.41,2.97,1.27,4.29l.59,.92c1.51,2.34,4.06,3.62,6.64,3.61,1.47,0,2.97-.41,4.28-1.26l3.47-2.24-1.41-2.18-2.18,1.41c.83,1.28,1.66,2.57,2.49,3.85l1.36,2.11,2.15-1.29c28.71-17.25,57.41-34.5,86.12-51.75l-1.34-2.22-.76,2.48c2.45,.75,5.03,1.13,7.64,1.13,5.1,0,10.33-1.46,15.01-4.48,8.06-5.21,12.58-13.8,12.58-22.43,0-4.45-1.22-8.93-3.77-12.88l-2.18,1.41-2.18,1.41c1.99,3.08,2.94,6.54,2.94,10.06,0,6.81-3.6,13.81-10.21,18.07-3.84,2.48-8.08,3.65-12.19,3.65-2.1,0-4.17-.31-6.12-.9l-1.11-.34-.99,.59c-28.71,17.25-57.41,34.5-86.12,51.75l1.34,2.22,2.18-1.41c-.83-1.28-1.66-2.57-2.49-3.85l-1.41-2.18-5.64,3.65c-.46,.3-.96,.43-1.47,.44-.9,0-1.76-.43-2.28-1.24l-.59-.92c-.3-.46-.43-.96-.44-1.47,0-.9,.43-1.76,1.24-2.28l5.64-3.65-1.41-2.18-2.49-3.85-2.18,1.41,1.48,2.13c27.52-19.09,55.03-38.18,82.55-57.26l.95-.66,.15-1.15c.76-5.99,4.23-11.83,10.03-15.57,3.84-2.49,8.11-3.67,12.23-3.67,3.31,0,6.52,.76,9.34,2.22,2.82,1.45,5.26,3.59,7.06,6.38l2.18-1.41Z"/><path class="cls-2" d="M124.09,200.69c-.23-4.15-.47-8.3-.7-12.45,3.48-2.05,6.96-4.1,10.44-6.14l-20.36-31.51-35.86,25.8c6.05,9.37,12.11,18.73,18.16,28.1,2.22-1.31,4.45-2.62,6.67-3.92,.79,1.08,1.58,2.16,2.36,3.25-.21,.89-.33,1.82-.33,2.78-.8,13.75-1.6,27.49-2.41,41.24,8.69-.06,17.37-.13,26.06-.19-.83-13.68-1.65-27.37-2.48-41.05,0-2.18-.58-4.2-1.56-5.91Z"/><path class="cls-1" d="M124.09,200.69l2.59-.15c-.23-4.15-.47-8.3-.7-12.45l-2.59,.15,1.32,2.24c3.48-2.05,6.96-4.1,10.44-6.14l2.33-1.37-23.31-36.07-2.21,1.59-35.86,25.8-2,1.44,1.34,2.07c6.05,9.37,12.11,18.73,18.16,28.1l1.35,2.09,2.15-1.26c2.22-1.31,4.45-2.62,6.67-3.92l-1.32-2.24-2.1,1.53c.79,1.08,1.58,2.16,2.36,3.25l2.1-1.53-2.53-.59c-.25,1.06-.4,2.19-.4,3.37h2.6l-2.59-.15c-.8,13.75-1.6,27.49-2.41,41.24l-.16,2.77,2.77-.02c8.69-.06,17.37-.13,26.06-.19l2.74-.02-.17-2.73c-.83-13.68-1.65-27.37-2.48-41.05l-2.59,.16h2.59c0-2.64-.7-5.11-1.9-7.2l-2.25,1.29,2.59-.15-2.59,.15-2.25,1.29c.76,1.32,1.21,2.9,1.21,4.62v.16c.83,13.68,1.66,27.37,2.48,41.05l2.59-.16-.02-2.6c-8.69,.06-17.37,.13-26.06,.19l.02,2.6,2.59,.15c.8-13.75,1.6-27.49,2.41-41.24v-.15c0-.74,.1-1.47,.27-2.19l.27-1.16-.7-.96c-.79-1.08-1.58-2.16-2.36-3.24l-1.39-1.9-2.03,1.19c-2.22,1.31-4.45,2.62-6.67,3.92l1.32,2.24,2.18-1.41c-6.05-9.37-12.11-18.73-18.16-28.1l-2.18,1.41,1.52,2.11,35.86-25.8-1.52-2.11-2.18,1.41,20.36,31.51,2.18-1.41-1.32-2.24c-3.48,2.05-6.96,4.1-10.44,6.14l-1.36,.8,.09,1.58c.23,4.15,.47,8.3,.7,12.45l.03,.61,.31,.53,2.25-1.29Z"/></g></svg>