<?xml version="1.0" encoding="UTF-8"?><svg id="Layer_2" xmlns="http://www.w3.org/2000/svg" viewBox="0 0 258.33 361.66"><defs><style>.cls-1{fill:#cfcecb;}.cls-2{fill:#bd4428;}.cls-3{fill:#db5f4c;}.cls-4{fill:#702c19;}</style></defs><g id="Layer_1-2"><path class="cls-4" d="M27.98,0H230.34c15.45,0,27.98,12.54,27.98,27.98V333.67c0,15.45-12.54,27.98-27.98,27.98H27.98c-15.45,0-27.98-12.54-27.98-27.98V27.98C0,12.54,12.54,0,27.98,0Z"/><path class="cls-1" d="M145.28,246.29h-5.19c0,3.2-1.28,6.04-3.37,8.14-2.1,2.09-4.94,3.37-8.14,3.37-3.2,0-6.04-1.28-8.14-3.37-2.09-2.1-3.37-4.94-3.37-8.14,0-3.2,1.28-6.04,3.37-8.14,2.1-2.09,4.94-3.37,8.14-3.37,3.2,0,6.04,1.28,8.14,3.37,2.09,2.1,3.37,4.94,3.37,8.14h10.38c0-6.03-2.46-11.54-6.41-15.48-3.95-3.95-9.45-6.41-15.48-6.41-6.03,0-11.54,2.46-15.48,6.41-3.95,3.95-6.42,9.45-6.41,15.48,0,6.03,2.46,11.54,6.41,15.48,3.95,3.95,9.45,6.41,15.48,6.41,6.03,0,11.54-2.46,15.48-6.41,3.95-3.95,6.42-9.45,6.41-15.48h-5.19Z"/><path class="cls-1" d="M129.11,110.68v-5.19c-16.5,.01-28.83,5.39-34.81,8.49l-3.7,1.91,1.07,4.03c7.56,28.48,15.12,56.96,22.68,85.44l1.28,4.83,4.88-1.1c2.24-.51,5.12-.95,8.48-.96h.17c3.44,0,6.38,.45,8.65,.96l4.88,1.1,1.28-4.83,22.68-85.44,1.07-4.03-3.7-1.91c-5.98-3.09-18.33-8.49-34.86-8.49h-.15l.1,5.19v0l.1,5.19-.07-3.72v3.72h.07l-.07-3.72v3.72h.02c14.25,0,24.95,4.67,30.09,7.33l2.39-4.61-5.02-1.33-22.68,85.44,5.02,1.33,1.14-5.06c-2.87-.65-6.59-1.22-10.94-1.22h-.22c-4.24,.02-7.88,.58-10.71,1.22l1.14,5.06,5.02-1.33c-7.56-28.48-15.12-56.96-22.68-85.44l-5.02,1.33,2.39,4.61c5.14-2.66,15.82-7.32,30.04-7.33h.09l-.1-5.19Z"/><path class="cls-2" d="M145.28,246.29c0,9.22-7.48,16.7-16.7,16.7s-16.7-7.48-16.7-16.7,7.48-16.7,16.7-16.7,16.7,7.48,16.7,16.7Z"/><path class="cls-2" d="M129.11,110.68c-15.36,.01-26.86,5.03-32.42,7.91,7.56,28.48,15.12,56.96,22.68,85.44,2.54-.57,5.8-1.07,9.6-1.09,3.98-.02,7.38,.5,9.99,1.09l22.68-85.44c-5.56-2.88-17.11-7.92-32.53-7.91Z"/><path class="cls-3" d="M128.54,119.21c-10.65,0-18.63,3.49-22.49,5.48,5.95,23.48,11.91,46.95,17.86,70.43,1.25-.33,2.93-.64,4.92-.66,1.83-.02,3.39,.22,4.59,.49,5.89-23.42,11.78-46.84,17.67-70.27-3.86-2-11.87-5.49-22.56-5.48Z"/></g></svg>