<?xml version="1.0" encoding="UTF-8"?><svg id="Layer_2" xmlns="http://www.w3.org/2000/svg" viewBox="0 0 258.33 361.66"><defs><style>.cls-1{fill:#75ad98;}.cls-2{fill:#47705d;}.cls-3{fill:#cfcecb;}.cls-4{fill:#b6ddcc;font-family:MyriadPro-Regular, 'Myriad Pro';font-size:73.05px;}</style></defs><g id="Layer_1-2"><path class="cls-2" d="M27.98,0H230.34c15.45,0,27.98,12.54,27.98,27.98V333.67c0,15.45-12.54,27.98-27.98,27.98H27.98c-15.45,0-27.98-12.54-27.98-27.98V27.98C0,12.54,12.54,0,27.98,0Z"/><path class="cls-3" d="M194.75,169.32v-5.19c-3.78,0-7.3,1.32-10.04,3.51-2.75,2.19-4.76,5.26-5.63,8.8l5.04,1.23v-5.19h-11.89v5.19l5.18-.35c-.66-9.79-4.57-18.72-10.64-25.67l-3.91,3.41,3.67,3.67,8.42-8.42-3.67-3.67-2.7,4.44c2.57,1.56,5.48,2.34,8.39,2.34,4.1,0,8.26-1.58,11.4-4.72,3.14-3.14,4.73-7.3,4.73-11.41,0-4.11-1.59-8.28-4.73-11.41-3.14-3.14-7.3-4.73-11.41-4.73-4.11,0-8.28,1.59-11.41,4.73-3.14,3.13-4.73,7.29-4.72,11.4,0,2.9,.78,5.81,2.35,8.39l4.43-2.7-3.67-3.67-8.42,8.42,3.67,3.67,3.41-3.91c-6.95-6.07-15.87-9.98-25.67-10.64l-.35,5.18h5.19v-11.89h-5.19l1.23,5.04c3.54-.86,6.61-2.88,8.8-5.63,2.19-2.74,3.51-6.26,3.51-10.04,0-4.44-1.81-8.51-4.73-11.41-2.9-2.91-6.97-4.73-11.41-4.73-4.44,0-8.51,1.81-11.41,4.73-2.91,2.9-4.73,6.97-4.73,11.41,0,3.78,1.32,7.3,3.51,10.04,2.19,2.75,5.26,4.76,8.8,5.63l1.23-5.04h-5.19v11.88h5.19l-.34-5.18c-9.8,.65-18.74,4.55-25.7,10.61l3.41,3.91,3.67-3.67-8.38-8.38-3.67,3.67,4.44,2.69c1.56-2.58,2.34-5.49,2.34-8.39,0-4.11-1.58-8.26-4.72-11.4-3.14-3.14-7.3-4.73-11.41-4.73-4.11,0-8.28,1.59-11.41,4.73-3.14,3.14-4.73,7.3-4.73,11.41,0,4.11,1.59,8.28,4.73,11.41,3.13,3.14,7.29,4.73,11.4,4.72,2.9,0,5.81-.78,8.39-2.34l-2.69-4.44-3.67,3.67,8.38,8.38,3.67-3.67-3.9-3.42c-6.09,6.95-10.02,15.9-10.68,25.71l5.18,.35v-5.19h-11.82v5.19l5.04-1.23c-.86-3.54-2.88-6.61-5.63-8.8-2.74-2.19-6.26-3.51-10.04-3.51-4.44,0-8.51,1.81-11.41,4.73-2.91,2.9-4.73,6.97-4.73,11.41,0,4.44,1.81,8.51,4.73,11.41,2.9,2.91,6.97,4.73,11.41,4.73,3.78,0,7.3-1.32,10.04-3.51,2.75-2.19,4.76-5.26,5.63-8.8l-5.04-1.23v5.19h11.81v-5.19l-5.18,.34c.65,9.82,4.56,18.78,10.65,25.75l3.91-3.41-3.67-3.67-8.35,8.35,3.67,3.67,2.69-4.44c-2.57-1.56-5.48-2.35-8.39-2.34-4.1,0-8.26,1.58-11.4,4.72-3.14,3.14-4.73,7.3-4.73,11.41,0,4.11,1.59,8.28,4.73,11.41,3.14,3.14,7.3,4.73,11.41,4.73,4.11,0,8.27-1.59,11.41-4.73,3.14-3.14,4.73-7.29,4.72-11.4,0-2.9-.78-5.81-2.34-8.39l-4.44,2.69,3.67,3.67,8.35-8.35-3.67-3.67-3.42,3.91c6.97,6.09,15.92,10,25.75,10.65l.34-5.18h-5.19v11.81h5.19l-1.23-5.04c-3.54,.86-6.61,2.88-8.8,5.63-2.19,2.74-3.51,6.26-3.51,10.04,0,4.44,1.81,8.51,4.73,11.41,2.9,2.91,6.97,4.73,11.41,4.73,4.44,0,8.51-1.81,11.41-4.73,2.91-2.9,4.73-6.97,4.73-11.41,0-3.78-1.32-7.3-3.51-10.04-2.19-2.75-5.26-4.76-8.8-5.63l-1.23,5.04h5.19v-11.82h-5.19l.35,5.18c9.81-.66,18.75-4.59,25.71-10.68l-3.42-3.9-3.67,3.67,8.38,8.38,3.67-3.67-4.44-2.7c-1.57,2.57-2.35,5.48-2.35,8.39,0,4.1,1.58,8.26,4.72,11.4,3.14,3.14,7.3,4.73,11.41,4.73,4.11,0,8.27-1.59,11.41-4.73,3.14-3.14,4.73-7.3,4.73-11.41,0-4.11-1.59-8.28-4.73-11.41-3.13-3.14-7.29-4.73-11.4-4.72-2.9,0-5.81,.78-8.39,2.35l2.7,4.43,3.67-3.67-8.38-8.38-3.67,3.67,3.91,3.41c6.07-6.96,9.97-15.9,10.61-25.7l-5.18-.34v5.19h11.88v-5.19l-5.04,1.23c.86,3.54,2.88,6.61,5.63,8.8,2.74,2.19,6.26,3.51,10.04,3.51,4.44,0,8.51-1.81,11.41-4.73,2.91-2.9,4.73-6.97,4.73-11.41,0-4.44-1.81-8.51-4.73-11.41-2.9-2.91-6.97-4.73-11.41-4.73v10.38c1.61,0,3.01,.64,4.07,1.69,1.05,1.06,1.68,2.47,1.69,4.07,0,1.61-.64,3.01-1.69,4.07-1.06,1.05-2.47,1.68-4.07,1.69-1.37,0-2.58-.46-3.57-1.25-.99-.79-1.71-1.89-2.01-3.14l-.97-3.96h-20.82l-.32,4.85c-.5,7.48-3.45,14.25-8.08,19.57l-3.18,3.65,14.69,14.69,3.48-2.12c.91-.55,1.95-.83,2.99-.83,1.49,0,2.92,.55,4.06,1.68,1.13,1.14,1.68,2.58,1.69,4.07,0,1.49-.55,2.93-1.69,4.07-1.14,1.13-2.58,1.68-4.07,1.69-1.49,0-2.93-.55-4.07-1.69-1.13-1.14-1.67-2.57-1.68-4.06,0-1.05,.28-2.08,.84-3l2.12-3.48-14.7-14.7-3.65,3.2c-5.32,4.65-12.09,7.62-19.57,8.13l-4.84,.33v20.74l3.96,.97c1.25,.3,2.36,1.03,3.14,2.01,.79,.99,1.24,2.2,1.25,3.57,0,1.61-.64,3.01-1.69,4.07-1.06,1.05-2.47,1.68-4.07,1.69-1.61,0-3.01-.64-4.07-1.69-1.05-1.06-1.68-2.47-1.69-4.07,0-1.37,.46-2.58,1.25-3.57,.79-.99,1.89-1.71,3.14-2.01l3.96-.97v-20.75l-4.85-.32c-7.49-.5-14.28-3.46-19.6-8.11l-3.66-3.19-14.66,14.66,2.12,3.48c.55,.91,.84,1.95,.84,3,0,1.49-.55,2.92-1.68,4.06-1.14,1.13-2.58,1.68-4.07,1.69-1.49,0-2.93-.55-4.07-1.69-1.13-1.14-1.68-2.58-1.69-4.07,0-1.49,.55-2.93,1.69-4.07,1.14-1.13,2.57-1.67,4.06-1.68,1.04,0,2.08,.28,3,.84l3.48,2.12,14.66-14.66-3.19-3.65c-4.65-5.33-7.61-12.11-8.11-19.6l-.32-4.85h-20.75l-.97,3.96c-.3,1.25-1.03,2.36-2.01,3.14-.99,.79-2.2,1.24-3.57,1.25-1.61,0-3.01-.64-4.07-1.69-1.05-1.06-1.68-2.47-1.69-4.07,0-1.61,.64-3.01,1.69-4.07,1.06-1.05,2.47-1.68,4.07-1.69,1.37,0,2.58,.46,3.57,1.25,.99,.79,1.71,1.89,2.01,3.14l.97,3.96h20.74l.33-4.84c.51-7.48,3.48-14.26,8.13-19.57l3.2-3.66-14.69-14.69-3.48,2.11c-.91,.56-1.95,.84-3,.84-1.49,0-2.92-.55-4.06-1.68-1.13-1.14-1.68-2.58-1.69-4.07,0-1.49,.55-2.93,1.69-4.07,1.14-1.13,2.58-1.68,4.07-1.69,1.49,0,2.93,.55,4.07,1.69,1.13,1.13,1.67,2.57,1.68,4.06,0,1.05-.28,2.09-.84,3l-2.12,3.48,14.69,14.69,3.65-3.18c5.32-4.63,12.09-7.59,19.57-8.08l4.85-.32v-20.82l-3.96-.97c-1.25-.3-2.36-1.03-3.14-2.01-.79-.99-1.24-2.2-1.25-3.57,0-1.61,.64-3.01,1.69-4.07,1.06-1.05,2.47-1.68,4.07-1.69,1.61,0,3.01,.64,4.07,1.69,1.05,1.06,1.68,2.47,1.69,4.07,0,1.37-.46,2.58-1.25,3.57-.79,.99-1.89,1.71-3.14,2.01l-3.96,.97v20.81l4.84,.33c7.47,.51,14.23,3.47,19.54,8.11l3.65,3.19,14.73-14.73-2.12-3.48c-.56-.91-.84-1.95-.84-3,0-1.49,.55-2.92,1.68-4.06,1.14-1.13,2.58-1.68,4.07-1.69,1.49,0,2.94,.55,4.07,1.69,1.13,1.14,1.68,2.58,1.69,4.07,0,1.49-.55,2.93-1.69,4.07-1.14,1.13-2.57,1.67-4.06,1.68-1.05,0-2.08-.28-3-.84l-3.48-2.12-14.73,14.73,3.19,3.65c4.64,5.31,7.6,12.07,8.11,19.54l.33,4.84h20.82l.97-3.96c.3-1.25,1.03-2.36,2.01-3.14,.99-.79,2.2-1.24,3.57-1.25v-5.19Z"/><path class="cls-1" d="M194.75,169.11c-5.15,0-9.46,3.56-10.63,8.35h-11.89c-.59-8.63-4.02-16.47-9.38-22.6l8.42-8.42c4.21,2.56,9.78,2.03,13.42-1.61,4.28-4.28,4.28-11.21,0-15.49s-11.21-4.28-15.49,0c-3.64,3.64-4.17,9.21-1.61,13.42l-8.42,8.42c-6.13-5.35-13.97-8.79-22.6-9.38v-11.89c4.79-1.17,8.35-5.48,8.35-10.63,0-6.05-4.9-10.95-10.95-10.95s-10.95,4.9-10.95,10.95c0,5.15,3.56,9.46,8.35,10.63v11.88c-8.64,.57-16.5,4-22.64,9.35l-8.38-8.38c2.56-4.21,2.03-9.78-1.61-13.42-4.28-4.28-11.21-4.28-15.49,0-4.28,4.28-4.28,11.21,0,15.49,3.64,3.64,9.21,4.17,13.42,1.61l8.38,8.38c-5.37,6.14-8.82,13.99-9.41,22.64h-11.82c-1.17-4.79-5.48-8.35-10.63-8.35-6.05,0-10.95,4.9-10.95,10.95s4.9,10.95,10.95,10.95c5.15,0,9.46-3.56,10.63-8.35h11.81c.57,8.66,4.01,16.53,9.38,22.67l-8.35,8.35c-4.21-2.56-9.78-2.03-13.42,1.61-4.28,4.28-4.28,11.21,0,15.49,4.28,4.28,11.21,4.28,15.49,0,3.64-3.64,4.17-9.2,1.61-13.42l8.35-8.35c6.15,5.37,14.02,8.81,22.67,9.38v11.81c-4.79,1.17-8.35,5.48-8.35,10.63,0,6.05,4.9,10.95,10.95,10.95s10.95-4.9,10.95-10.95c0-5.15-3.56-9.46-8.35-10.63v-11.82c8.65-.59,16.51-4.03,22.64-9.41l8.38,8.38c-2.56,4.21-2.03,9.78,1.61,13.42,4.28,4.28,11.21,4.28,15.49,0,4.28-4.28,4.28-11.21,0-15.49-3.64-3.64-9.21-4.17-13.42-1.61l-8.38-8.38c5.35-6.14,8.78-14,9.35-22.64h11.88c1.17,4.79,5.48,8.35,10.63,8.35,6.05,0,10.95-4.9,10.95-10.95s-4.9-10.95-10.95-10.95Z"/><text class="cls-4" transform="translate(115.63 204)"><tspan x="0" y="0">$</tspan></text></g></svg>