<?xml version="1.0" encoding="UTF-8"?><svg id="Layer_2" xmlns="http://www.w3.org/2000/svg" viewBox="0 0 258.33 361.66"><defs><style>.cls-1{fill:#8c8c8c;}.cls-2{fill:#6d6e71;}.cls-3{fill:#cfcecb;}.cls-4{fill:#58595b;}</style></defs><g id="Layer_1-2"><path class="cls-4" d="M27.98,0H230.34c15.44,0,27.98,12.54,27.98,27.98V333.67c0,15.45-12.54,27.98-27.98,27.98H27.98c-15.44,0-27.98-12.54-27.98-27.98V27.98C0,12.54,12.54,0,27.98,0Z"/><path class="cls-3" d="M177.59,271.27l-88.73-.11c-.03-51.61-.07-103.22-.1-154.83,1.88-.09,3.76-.18,5.63-.27,.3-1.53,.6-3.06,.9-4.59-2.08-2.57-4.15-5.14-6.23-7.7,3.06-.75,6.12-1.51,9.19-2.26l5.07-8.47c1.95,2.78,3.9,5.56,5.85,8.33,5.16,.58,10.31,1.16,15.47,1.73l.15-1.3c-2.24-2.41-4.48-4.83-6.72-7.24,3.35-.76,6.7-1.53,10.05-2.29,1.64-3.02,3.28-6.05,4.92-9.07l4.94,8.85c3.34,.84,6.68,1.68,10.03,2.51-2.15,2.37-4.3,4.74-6.45,7.1,.04,.4,.07,.8,.11,1.2,5.5-.44,10.99-.89,16.49-1.33,1.85-2.7,3.71-5.4,5.56-8.1,1.8,2.43,3.61,4.86,5.41,7.29l10.24,2.62c-2.08,2.83-4.15,5.66-6.23,8.49,.27,1.25,.55,2.5,.82,3.76,1.39-.01,2.77-.03,4.16-.04-.18,51.9-.36,103.81-.55,155.71Z"/><rect class="cls-2" x="93.49" y="121.88" width="79.78" height="144.74"/><polygon class="cls-2" points="103.55 114.04 97.33 117.31 98.52 110.39 93.49 105.48 100.44 104.47 103.55 98.17 106.66 104.47 113.61 105.48 108.58 110.39 109.76 117.31 103.55 114.04"/><polygon class="cls-2" points="133.37 104.47 127.16 107.74 128.34 100.82 123.31 95.91 130.27 94.9 133.37 88.61 136.48 94.9 143.44 95.91 138.41 100.82 139.59 107.74 133.37 104.47"/><polygon class="cls-2" points="163.51 114.04 157.29 117.31 158.47 110.39 153.44 105.48 160.4 104.47 163.51 98.17 166.61 104.47 173.57 105.48 168.54 110.39 169.72 117.31 163.51 114.04"/><rect class="cls-1" x="137.19" y="127.31" width="27.67" height="32.32"/><rect class="cls-1" x="101.68" y="127.26" width="27.67" height="32.32"/><rect class="cls-1" x="137.3" y="173.46" width="27.67" height="32.32"/><rect class="cls-1" x="101.79" y="173.41" width="27.67" height="32.32"/><rect class="cls-1" x="137.3" y="219.66" width="27.67" height="32.32"/><rect class="cls-1" x="101.79" y="219.61" width="27.67" height="32.32"/></g></svg>