<?xml version="1.0" encoding="UTF-8"?><svg id="Layer_2" xmlns="http://www.w3.org/2000/svg" viewBox="0 0 258.33 361.66"><defs><style>.cls-1{fill:#39bad6;}.cls-2{fill:#179dc1;}.cls-3{fill:#cfcecb;}.cls-4{fill:#077db2;}</style></defs><g id="Layer_1-2"><path class="cls-4" d="M27.98,0H230.34c15.45,0,27.98,12.54,27.98,27.98V333.67c0,15.45-12.54,27.98-27.98,27.98H27.98c-15.45,0-27.98-12.54-27.98-27.98V27.98C0,12.54,12.54,0,27.98,0Z"/><path class="cls-3" d="M155.35,107.83c-17.97,10.58-35.95,21.16-53.92,31.74-19.11-11.16-38.22-22.31-57.33-33.47-.18,38.1-.35,76.2-.53,114.3,19.43,11.16,38.85,22.32,58.28,33.48,17.83-10.14,35.67-20.29,53.5-30.43,19.09,10.7,38.19,21.39,57.28,32.09,.42-38.21,.84-76.43,1.25-114.64-19.51-11.02-39.02-22.05-58.54-33.07Z"/><polygon class="cls-2" points="100.03 246.2 49.49 217.02 49.49 115.39 100.03 144.57 100.03 246.2"/><polygon class="cls-2" points="207.86 246.21 157.32 217.02 157.32 115.4 207.86 144.58 207.86 246.21"/><polygon class="cls-2" points="103.34 246.2 153.89 217.02 153.89 115.39 103.34 144.57 103.34 246.2"/><polygon class="cls-1" points="93.61 192.41 55.91 170.64 55.91 132.93 93.61 154.7 93.61 192.41"/><polygon class="cls-1" points="81.45 218.52 55.91 203.77 55.91 201.32 81.45 216.06 81.45 218.52"/><polygon class="cls-1" points="189.28 175.11 163.74 160.36 163.74 157.91 189.28 172.65 189.28 175.11"/><polygon class="cls-1" points="111.49 231.87 137.03 217.12 137.03 214.67 111.49 229.41 111.49 231.87"/><polygon class="cls-1" points="201.4 179.98 163.72 158.22 163.72 137.89 201.4 159.65 201.4 179.98"/><polygon class="cls-1" points="189.28 177.32 163.74 162.58 163.74 160.12 189.28 174.87 189.28 177.32"/><polygon class="cls-1" points="93.61 224.17 55.91 202.4 55.91 185.38 93.61 207.15 93.61 224.17"/><polygon class="cls-1" points="81.45 220.88 55.91 206.13 55.91 203.68 81.45 218.42 81.45 220.88"/><polygon class="cls-1" points="201.4 217.8 163.72 196.05 163.72 175.71 201.4 197.47 201.4 217.8"/><polygon class="cls-1" points="111.49 229.6 149.2 207.83 149.2 170.13 111.49 191.9 111.49 229.6"/><polygon class="cls-1" points="111.49 234.04 137.03 219.29 137.03 216.84 111.49 231.59 111.49 234.04"/><polygon class="cls-1" points="109.78 175.71 147.45 153.96 147.45 133.63 109.78 155.38 109.78 175.71"/></g></svg>