<?xml version="1.0" encoding="UTF-8"?><svg id="Layer_2" xmlns="http://www.w3.org/2000/svg" viewBox="0 0 258.33 361.66"><defs><style>.cls-1{fill:#885b7a;}.cls-2{fill:#b9c7d3;}.cls-3{fill:#e0a9cd;}.cls-4{fill:#c67ab3;}</style></defs><g id="Layer_1-2"><path class="cls-1" d="M27.98,0H230.34c15.45,0,27.98,12.54,27.98,27.98V333.67c0,15.45-12.54,27.98-27.98,27.98H27.98c-15.45,0-27.98-12.54-27.98-27.98V27.98C0,12.54,12.54,0,27.98,0Z"/><ellipse class="cls-1" cx="129.16" cy="243.12" rx="47.64" ry="11.67"/><path class="cls-2" d="M176.8,243.12h-2.6c0,.07,0,.24-.36,.69-.31,.37-.88,.87-1.71,1.39-1.45,.91-3.66,1.86-6.43,2.71-8.33,2.57-21.64,4.3-36.54,4.3-12.98,0-24.74-1.3-33.07-3.34-4.16-1.01-7.47-2.23-9.53-3.44-1.03-.59-1.73-1.18-2.09-1.61-.36-.45-.36-.62-.36-.69,0-.07,0-.24,.36-.69,.31-.37,.88-.87,1.71-1.39,1.45-.91,3.66-1.86,6.43-2.71,8.33-2.57,21.64-4.3,36.54-4.3,12.98,0,24.74,1.3,33.07,3.34,4.16,1.01,7.47,2.23,9.53,3.43,1.03,.59,1.73,1.18,2.09,1.61,.36,.45,.36,.62,.36,.69h5.19c0-1.54-.66-2.94-1.57-4.02-.8-.95-1.8-1.74-2.96-2.47-2.03-1.26-4.59-2.31-7.64-3.26-9.13-2.8-22.75-4.52-38.07-4.53-13.33,0-25.39,1.31-34.3,3.49-4.46,1.1-8.13,2.39-10.89,3.98-1.38,.8-2.55,1.68-3.47,2.77-.91,1.07-1.58,2.47-1.57,4.02,0,1.54,.66,2.94,1.57,4.02,.8,.95,1.8,1.74,2.96,2.47,2.03,1.26,4.59,2.31,7.64,3.26,9.13,2.8,22.75,4.52,38.07,4.53,13.33,0,25.39-1.31,34.3-3.49,4.46-1.1,8.13-2.39,10.89-3.99,1.38-.8,2.55-1.68,3.47-2.77,.91-1.07,1.58-2.47,1.57-4.02h-2.59Z"/><rect class="cls-1" x="110.31" y="218.86" width="37.7" height="24.26" rx="10.85" ry="10.85"/><path class="cls-2" d="M170.44,171.94c5.79-8.21,9.2-18.22,9.2-29.03,0-27.88-22.6-50.47-50.47-50.47s-50.47,22.6-50.47,50.47c0,10.81,3.41,20.82,9.2,29.03l41.28,71.5,41.28-71.49Z"/><path class="cls-4" d="M166.13,168.6c5.18-7.35,8.24-16.32,8.24-26,0-24.96-20.24-45.2-45.2-45.2s-45.2,20.24-45.2,45.2c0,9.68,3.05,18.64,8.24,26l36.97,64.03,36.97-64.03Z"/><path class="cls-3" d="M156.4,139.03c0,15.04-12.2,27.24-27.24,27.24s-27.24-12.2-27.24-27.24,12.2-27.24,27.24-27.24,27.24,12.2,27.24,27.24Z"/></g></svg>