<svg xmlns="http://www.w3.org/2000/svg" id="Layer_2" viewBox="0 0 258.33 361.66"><defs><style>.cls-1,.cls-2{fill:#f2a659;}.cls-1,.cls-3{stroke:#b9c7d3;stroke-miterlimit:10;stroke-width:3px;}.cls-4{fill:#f3b881;}.cls-5{fill:#231f20;font-family:FranklinGothic-Book, 'Franklin Gothic Book';font-size:24.11px;}.cls-3{fill:#e89232;}</style></defs><g id="Layer_1-2"><rect class="cls-4" width="258.33" height="361.66" rx="27.98" ry="27.98"/><rect class="cls-2" x="46.31" y="8.82" width="202.34" height="344.86" rx="16.17" ry="16.17"/><g><path class="cls-3" d="M196.7,46.67c-5.22-8.07-16.49-10.07-25.17-4.45-5.03,3.25-8.07,8.34-8.74,13.61-21.5,14.91-42.99,29.82-64.49,44.74l1.94,3.01-2.71,1.75c-1.92,1.24-2.48,3.81-1.23,5.73l.46,.72c1.24,1.92,3.81,2.48,5.73,1.23l2.71-1.75c.65,1,1.3,2.01,1.94,3.01,22.43-13.48,44.85-26.95,67.28-40.43,5.08,1.55,10.97,.87,16-2.38,8.69-5.61,11.5-16.71,6.28-24.78Z"/><path class="cls-1" d="M143.51,108.09c-.18-3.24-.36-6.48-.55-9.72,2.72-1.6,5.44-3.2,8.16-4.8l-15.91-24.61-28.01,20.16c4.73,7.32,9.46,14.64,14.19,21.95,1.74-1.02,3.47-2.04,5.21-3.07,.62,.85,1.23,1.69,1.85,2.54-.16,.7-.26,1.42-.26,2.17-.63,10.74-1.25,21.48-1.88,32.22,6.79-.05,13.57-.1,20.36-.15-.65-10.69-1.29-21.38-1.94-32.07,0-1.7-.45-3.28-1.22-4.62Z"/></g></g></svg>