<svg xmlns="http://www.w3.org/2000/svg" id="Layer_2" viewBox="0 0 258.33 361.66"><defs><style>.cls-1{fill:none;stroke:#cfcecb;stroke-miterlimit:10;stroke-width:6px;}.cls-2{fill:#231f20;font-family:FranklinGothic-Book, 'Franklin Gothic Book';font-size:24.11px;}.cls-3{fill:#bd4428;}.cls-4{fill:#db5f4c;}.cls-5{fill:#f18578;}</style></defs><g id="Layer_1-2"><path class="cls-5" d="M27.98,0H230.34c15.45,0,27.98,12.54,27.98,27.98V333.67c0,15.45-12.54,27.98-27.98,27.98H27.98c-15.45,0-27.98-12.54-27.98-27.98V27.98C0,12.54,12.54,0,27.98,0Z"/><rect class="cls-4" x="46.25" y="8.4" width="202.34" height="344.86" rx="16.17" ry="16.17"/><g><circle class="cls-1" cx="146.99" cy="130.8" r="12.34"/><path class="cls-1" d="M147.38,30.58c-11.35,0-19.85,3.72-23.96,5.84,5.59,21.05,11.17,42.09,16.76,63.14,1.88-.42,4.28-.79,7.09-.81,2.94-.01,5.45,.37,7.38,.81,5.59-21.05,11.17-42.09,16.76-63.14-4.11-2.13-12.64-5.85-24.04-5.84Z"/><circle class="cls-3" cx="146.99" cy="130.8" r="12.34"/><path class="cls-3" d="M147.38,30.58c-11.35,0-19.85,3.72-23.96,5.84,5.59,21.05,11.17,42.09,16.76,63.14,1.88-.42,4.28-.79,7.09-.81,2.94-.01,5.45,.37,7.38,.81,5.59-21.05,11.17-42.09,16.76-63.14-4.11-2.13-12.64-5.85-24.04-5.84Z"/><path class="cls-4" d="M146.96,36.89c-7.87,0-13.77,2.58-16.62,4.05,4.4,17.35,8.8,34.7,13.2,52.04,.93-.24,2.16-.47,3.63-.48,1.35-.01,2.51,.16,3.39,.36,4.35-17.31,8.71-34.62,13.06-51.92-2.85-1.48-8.77-4.06-16.67-4.05Z"/></g></g></svg>