<svg xmlns="http://www.w3.org/2000/svg" id="Layer_2" viewBox="0 0 258.33 361.66"><defs><style>.cls-1{fill:#dce9e3;}.cls-2{fill:#75ad98;}.cls-3{fill:none;stroke:#cfcecb;stroke-miterlimit:10;stroke-width:6px;}.cls-4{font-family:MyriadPro-Regular, 'Myriad Pro';font-size:64.41px;}.cls-4,.cls-5{fill:#b6ddcc;}.cls-6{fill:#231f20;font-family:FranklinGothic-Book, 'Franklin Gothic Book';font-size:24.11px;}</style></defs><g id="Layer_1-2"><path class="cls-1" d="M27.98,0H230.34c15.45,0,27.98,12.54,27.98,27.98V333.67c0,15.45-12.54,27.98-27.98,27.98H27.98c-15.45,0-27.98-12.54-27.98-27.98V27.98C0,12.54,12.54,0,27.98,0Z"/><rect class="cls-5" x="46.25" y="8.4" width="202.34" height="344.86" rx="16.17" ry="16.17"/><g><path class="cls-3" d="M202.46,83.65c-4.54,0-8.34,3.14-9.37,7.36h-10.48c-.52-7.61-3.55-14.53-8.27-19.93l7.42-7.42c3.72,2.26,8.62,1.79,11.83-1.42,3.77-3.77,3.77-9.88,0-13.65-3.77-3.77-9.88-3.77-13.65,0-3.21,3.21-3.68,8.12-1.42,11.83l-7.42,7.42c-5.4-4.72-12.32-7.75-19.93-8.27v-10.48c4.22-1.03,7.36-4.83,7.36-9.37,0-5.33-4.32-9.66-9.66-9.66s-9.66,4.32-9.66,9.66c0,4.54,3.14,8.34,7.36,9.37v10.48c-7.62,.5-14.54,3.52-19.96,8.24l-7.39-7.39c2.26-3.72,1.79-8.62-1.42-11.83-3.77-3.77-9.88-3.77-13.65,0-3.77,3.77-3.77,9.88,0,13.65,3.21,3.21,8.12,3.68,11.83,1.42l7.39,7.39c-4.74,5.41-7.78,12.34-8.3,19.96h-10.42c-1.03-4.22-4.83-7.36-9.37-7.36-5.33,0-9.66,4.32-9.66,9.66s4.32,9.66,9.66,9.66c4.54,0,8.34-3.14,9.37-7.36h10.42c.5,7.63,3.54,14.57,8.27,19.99l-7.36,7.36c-3.72-2.26-8.62-1.79-11.83,1.42-3.77,3.77-3.77,9.88,0,13.65s9.88,3.77,13.65,0c3.21-3.21,3.68-8.12,1.42-11.83l7.36-7.36c5.42,4.73,12.36,7.77,19.99,8.27v10.42c-4.22,1.03-7.36,4.83-7.36,9.37,0,5.33,4.32,9.66,9.66,9.66s9.66-4.32,9.66-9.66c0-4.54-3.14-8.34-7.36-9.37v-10.42c7.62-.52,14.55-3.56,19.96-8.3l7.39,7.39c-2.26,3.72-1.79,8.62,1.42,11.83,3.77,3.77,9.88,3.77,13.65,0,3.77-3.77,3.77-9.88,0-13.65-3.21-3.21-8.12-3.68-11.83-1.42l-7.39-7.39c4.72-5.41,7.74-12.34,8.24-19.96h10.48c1.03,4.22,4.83,7.36,9.37,7.36,5.33,0,9.66-4.32,9.66-9.66s-4.32-9.66-9.66-9.66Z"/><path class="cls-2" d="M202.46,83.47c-4.54,0-8.34,3.14-9.37,7.36h-10.48c-.52-7.61-3.55-14.53-8.27-19.93l7.42-7.42c3.72,2.26,8.62,1.79,11.83-1.42,3.77-3.77,3.77-9.88,0-13.65-3.77-3.77-9.88-3.77-13.65,0-3.21,3.21-3.68,8.12-1.42,11.83l-7.42,7.42c-5.4-4.72-12.32-7.75-19.93-8.27v-10.48c4.22-1.03,7.36-4.83,7.36-9.37,0-5.33-4.32-9.66-9.66-9.66s-9.66,4.32-9.66,9.66c0,4.54,3.14,8.34,7.36,9.37v10.48c-7.62,.5-14.54,3.52-19.96,8.24l-7.39-7.39c2.26-3.72,1.79-8.62-1.42-11.83-3.77-3.77-9.88-3.77-13.65,0-3.77,3.77-3.77,9.88,0,13.65,3.21,3.21,8.12,3.68,11.83,1.42l7.39,7.39c-4.74,5.41-7.78,12.34-8.3,19.96h-10.42c-1.03-4.22-4.83-7.36-9.37-7.36-5.33,0-9.66,4.32-9.66,9.66s4.32,9.66,9.66,9.66c4.54,0,8.34-3.14,9.37-7.36h10.42c.5,7.63,3.54,14.57,8.27,19.99l-7.36,7.36c-3.72-2.26-8.62-1.79-11.83,1.42-3.77,3.77-3.77,9.88,0,13.65,3.77,3.77,9.88,3.77,13.65,0,3.21-3.21,3.68-8.12,1.42-11.83l7.36-7.36c5.42,4.73,12.36,7.77,19.99,8.27v10.42c-4.22,1.03-7.36,4.83-7.36,9.37,0,5.33,4.32,9.66,9.66,9.66s9.66-4.32,9.66-9.66c0-4.54-3.14-8.34-7.36-9.37v-10.42c7.62-.52,14.55-3.56,19.96-8.3l7.39,7.39c-2.26,3.72-1.79,8.62,1.42,11.83,3.77,3.77,9.88,3.77,13.65,0s3.77-9.88,0-13.65c-3.21-3.21-8.12-3.68-11.83-1.42l-7.39-7.39c4.72-5.41,7.74-12.34,8.24-19.96h10.48c1.03,4.22,4.83,7.36,9.37,7.36,5.33,0,9.66-4.32,9.66-9.66s-4.32-9.66-9.66-9.66Z"/><text class="cls-4" transform="translate(132.7 114.23)"><tspan x="0" y="0">$</tspan></text></g></g></svg>