<svg xmlns="http://www.w3.org/2000/svg" id="Layer_2" viewBox="0 0 258.33 361.66"><defs><style>.cls-1{fill:#39bad6;}.cls-2{fill:#179dc1;}.cls-3{fill:#cfcecb;}.cls-4{fill:#231f20;font-family:FranklinGothic-Book, 'Franklin Gothic Book';font-size:24.11px;}.cls-5{fill:#78cfe0;}</style></defs><g id="Layer_1-2"><path class="cls-5" d="M27.98,0H230.34c15.45,0,27.98,12.54,27.98,27.98V333.67c0,15.45-12.54,27.98-27.98,27.98H27.98c-15.45,0-27.98-12.54-27.98-27.98V27.98C0,12.54,12.54,0,27.98,0Z"/><rect class="cls-1" x="46.25" y="9.06" width="202.34" height="344.86" rx="16.17" ry="16.17"/><g><path class="cls-3" d="M173.78,34.88c-13.46,7.92-26.92,15.85-40.38,23.77-14.31-8.35-28.62-16.71-42.93-25.06l-.4,85.59c14.55,8.36,29.09,16.72,43.64,25.07,13.36-7.6,26.71-15.19,40.07-22.79,14.3,8.01,28.6,16.02,42.9,24.03l.94-85.85c-14.61-8.26-29.22-16.51-43.83-24.77Z"/><polygon class="cls-2" points="132.36 138.5 94.51 116.65 94.51 40.54 132.36 62.39 132.36 138.5"/><polygon class="cls-2" points="213.11 138.5 175.26 116.65 175.26 40.55 213.11 62.4 213.11 138.5"/><polygon class="cls-2" points="134.84 138.5 172.69 116.65 172.69 40.54 134.84 62.39 134.84 138.5"/><polygon class="cls-1" points="127.55 98.22 99.32 81.92 99.32 53.68 127.55 69.98 127.55 98.22"/><polygon class="cls-1" points="118.44 117.77 99.32 106.73 99.32 104.89 118.44 115.93 118.44 117.77"/><polygon class="cls-1" points="199.19 85.26 180.06 74.22 180.06 72.38 199.19 83.42 199.19 85.26"/><polygon class="cls-1" points="140.94 127.77 160.07 116.72 160.07 114.89 140.94 125.93 140.94 127.77"/><polygon class="cls-1" points="208.27 88.91 180.05 72.62 180.05 57.39 208.27 73.68 208.27 88.91"/><polygon class="cls-1" points="199.19 86.92 180.06 75.88 180.06 74.04 199.19 85.08 199.19 86.92"/><polygon class="cls-1" points="127.55 122 99.32 105.7 99.32 92.95 127.55 109.26 127.55 122"/><polygon class="cls-1" points="118.44 119.54 99.32 108.49 99.32 106.66 118.44 117.7 118.44 119.54"/><polygon class="cls-1" points="208.27 117.23 180.05 100.94 180.05 85.72 208.27 102.01 208.27 117.23"/><polygon class="cls-1" points="140.94 126.07 169.18 109.77 169.18 81.53 140.94 97.83 140.94 126.07"/><polygon class="cls-1" points="140.94 129.39 160.07 118.35 160.07 116.51 140.94 127.55 140.94 129.39"/><polygon class="cls-1" points="139.66 85.72 167.87 69.43 167.87 54.2 139.66 70.49 139.66 85.72"/></g></g></svg>