<svg xmlns="http://www.w3.org/2000/svg" id="Layer_2" viewBox="0 0 258.33 361.66"><defs><style>.cls-1{fill:#8c8c8c;}.cls-2{fill:#6d6e71;}.cls-3{fill:#cfcecb;}.cls-4{fill:#231f20;font-family:FranklinGothic-Book, 'Franklin Gothic Book';font-size:24.11px;}.cls-5{fill:#ababab;}</style></defs><g id="Layer_1-2"><path class="cls-5" d="M27.98,0H230.34c15.44,0,27.98,12.54,27.98,27.98V333.67c0,15.45-12.54,27.98-27.98,27.98H27.98c-15.44,0-27.98-12.54-27.98-27.98V27.98C0,12.54,12.54,0,27.98,0Z"/><rect class="cls-1" x="46.25" y="8.02" width="202.34" height="344.86" rx="16.17" ry="16.17"/><g><path class="cls-3" d="M173.87,152.49c-19.44-.02-38.88-.05-58.31-.07-.02-33.92-.04-67.83-.06-101.75l3.7-.18c.2-1.01,.39-2.01,.59-3.02-1.36-1.69-2.73-3.38-4.09-5.06l6.04-1.49c1.11-1.86,2.22-3.71,3.33-5.57,1.28,1.83,2.56,3.65,3.84,5.48,3.39,.38,6.78,.76,10.17,1.14,.03-.28,.07-.57,.1-.85-1.47-1.59-2.94-3.17-4.42-4.76,2.2-.5,4.4-1.01,6.61-1.51,1.08-1.99,2.15-3.97,3.23-5.96l3.25,5.82,6.59,1.65c-1.41,1.56-2.82,3.11-4.24,4.67,.02,.26,.05,.53,.07,.79,3.61-.29,7.22-.58,10.83-.87,1.22-1.77,2.44-3.55,3.65-5.32,1.18,1.6,2.37,3.2,3.55,4.79l6.73,1.72c-1.36,1.86-2.73,3.72-4.09,5.58l.54,2.47,2.73-.03c-.12,34.11-.24,68.22-.36,102.33Z"/><g><rect class="cls-2" x="118.6" y="54.31" width="52.43" height="95.12"/><polygon class="cls-2" points="125.21 49.16 121.12 51.31 121.9 46.76 118.6 43.54 123.17 42.88 125.21 38.74 127.25 42.88 131.82 43.54 128.52 46.76 129.3 51.31 125.21 49.16"/><polygon class="cls-2" points="144.81 42.88 140.73 45.02 141.51 40.47 138.2 37.25 142.77 36.59 144.81 32.45 146.86 36.59 151.42 37.25 148.12 40.47 148.9 45.02 144.81 42.88"/><polygon class="cls-2" points="164.61 49.16 160.53 51.31 161.31 46.76 158 43.54 162.57 42.88 164.61 38.74 166.66 42.88 171.23 43.54 167.92 46.76 168.7 51.31 164.61 49.16"/></g><rect class="cls-1" x="147.32" y="57.89" width="18.18" height="21.24"/><rect class="cls-1" x="123.98" y="57.85" width="18.18" height="21.24"/><rect class="cls-1" x="147.39" y="88.22" width="18.18" height="21.24"/><rect class="cls-1" x="124.05" y="88.18" width="18.18" height="21.24"/><rect class="cls-1" x="147.39" y="118.58" width="18.18" height="21.24"/><rect class="cls-1" x="124.05" y="118.54" width="18.18" height="21.24"/></g></g></svg>