<svg xmlns="http://www.w3.org/2000/svg" id="Layer_2" viewBox="0 0 258.33 361.66"><defs><style>.cls-1{fill:#e9945b;}.cls-2{fill:#f4bc94;}.cls-3{fill:#cfcecb;}.cls-4{fill:#231f20;font-family:FranklinGothic-Book, 'Franklin Gothic Book';font-size:24.11px;}.cls-5{fill:#dd7933;}</style></defs><g id="Layer_1-2"><path class="cls-2" d="M27.98,0H230.34c15.45,0,27.98,12.54,27.98,27.98V333.67c0,15.45-12.54,27.98-27.98,27.98H27.98c-15.44,0-27.98-12.54-27.98-27.98V27.98C0,12.54,12.54,0,27.98,0Z"/><rect class="cls-1" x="46.25" y="8.4" width="202.34" height="344.86" rx="16.17" ry="16.17"/><g><path class="cls-3" d="M203.31,114.87c-5.24-1.32-10.92-2.56-16.99-3.61-6.05-1.05-11.79-1.79-17.15-2.3,6.69-1.11,13.66-2.45,20.88-4.07,4.74-1.06,9.32-2.19,13.75-3.36,.13-5.5-.21-21.53-11.2-37.09-13.33-18.87-32.86-23.66-37.55-24.67-.14-.95-.79-4.47-3.93-7.19-3.1-2.68-6.59-2.82-7.73-2.85-1.79-.04-5.52,.25-8.68,3.12-2.93,2.66-3.62,5.97-3.8,7.05-3.9,.82-26.69,5.98-39.45,27.79-8.29,14.18-8.06,28.06-7.64,33.74,4.09,1.33,8.49,2.58,13.2,3.71,8.08,1.93,15.62,3.1,22.41,3.8-4.96,.21-10.31,.63-16,1.36-6.56,.84-12.6,1.97-18.07,3.22-2.11,.66-17.25,5.36-17.08,13.1,.03,1.53-.69,7.07,17.32,12.3,11.96,3.47,38.9,6.5,60.23,6.5s48.98-3.7,60.06-7.5c9.08-3.12,12.65-6.88,12.25-12.38-.33-4.55-6.36-8.72-14.82-10.66Z"/><ellipse class="cls-5" cx="143.37" cy="126.48" rx="69.27" ry="14.07"/><ellipse class="cls-1" cx="143.37" cy="125.84" rx="55.64" ry="11.3"/><path class="cls-5" d="M199.01,98.45c-13.48,3.84-32.43,7.73-55.28,7.77-23.19,.04-42.41-3.9-56.01-7.77,0-30.53,25.12-55.64,55.64-55.64,30.53,0,55.64,25.12,55.64,55.64Z"/></g></g></svg>