<?xml version="1.0" encoding="UTF-8"?><svg xmlns="http://www.w3.org/2000/svg" viewBox="0 0 792 612"><defs><style>.cls-1{fill:#142235;}.cls-2{fill:#1a3966;}.cls-3{fill:#7997a3;}.cls-4{fill:#11284c;}.cls-5{fill:#dcf1f7;}.cls-6{fill:#231f20;}</style></defs><g id="Layer_2"><rect class="cls-5" width="792" height="612"/></g><g id="Layer_3"><path class="cls-1" d="M156.97,232.43h45.85c3.92,61.07,7.83,122.15,11.75,183.22h-65.86c2.75-61.07,5.5-122.15,8.26-183.22Z"/><rect class="cls-1" x="583.88" y="249.83" width="39.99" height="131.12"/><path class="cls-1" d="M614.37,324.85h-9.46c1.22-36.91,2.44-73.82,3.66-110.74h2.97c.94,36.91,1.89,73.82,2.83,110.74Z"/><path class="cls-1" d="M601.98,324.85h-9.46c1.22-36.91,2.44-73.82,3.66-110.74h2.97c.94,36.91,1.89,73.82,2.83,110.74Z"/><rect class="cls-1" y="391.59" width="90.54" height="131.12"/><rect class="cls-1" x="701.46" y="388.01" width="90.54" height="131.12"/><rect class="cls-1" x="605.04" y="360.08" width="90.54" height="131.12"/><rect class="cls-1" x="496.85" y="336.54" width="90.54" height="131.12"/><rect class="cls-1" x="353.88" y="349.58" width="90.54" height="131.12"/><rect class="cls-1" x="431.11" y="318.79" width="90.54" height="172.4"/><rect class="cls-1" x="93.03" y="377.42" width="195.99" height="131.12"/><path class="cls-1" d="M94.25,530.6H56.64v-220.89c12.54-13,25.07-26,37.61-39v259.9Z"/><path class="cls-1" d="M256.67,487.46h113.64l1.75-262.24c-38.46,8.95-76.93,17.9-115.39,26.85v235.38Z"/><path class="cls-4" d="M347.91,526.12h-98.53l-1.52-262.24c33.35,8.95,66.69,17.9,100.04,26.85v235.38Z"/><rect class="cls-4" x="388.45" y="211" width="59.49" height="259.9"/><path class="cls-4" d="M504.54,590.99c-11.23,0-20.34-33.63-20.34-75.12v-208.69l20.34-75.12h0l20.34,75.12v208.69c0,41.49-9.11,75.12-20.34,75.12Z"/><rect class="cls-4" x="141.76" y="339.46" width="98.53" height="235.38"/><path class="cls-1" d="M317.18,248.79h-9.65c1.24-36.91,2.48-73.82,3.73-110.74h3.03c.96,36.91,1.93,73.82,2.89,110.74Z"/><path class="cls-4" d="M509.36,269.48h-9.65c1.24-36.91,2.48-73.82,3.73-110.74h3.03c.96,36.91,1.93,73.82,2.89,110.74Z"/><rect class="cls-4" x="542.12" y="278.48" width="97.96" height="259.9"/><rect class="cls-4" x="682.89" y="306" width="65.78" height="239.28"/><path class="cls-4" d="M115.41,519.13h-37.61v-220.89c12.54-13,25.07-26,37.61-39v259.9Z"/><rect class="cls-2" x="219.44" y="367.17" width="56.84" height="122.84"/><path class="cls-2" d="M693.95,499.61h-56.84V232.07c5.28,0,10.56,0,15.85,0,4.42-6.7,8.84-13.4,13.26-20.1,4.42,6.7,8.84,13.4,13.26,20.1,4.82,0,9.65,0,14.47,0V499.61Z"/><rect class="cls-2" y="329.06" width="28.42" height="192.81"/><path class="cls-2" d="M504.54,480.34h-86.36v-144.94c-4.51-8.58-9.02-17.15-13.54-25.73,4.51,.04,9.02,.08,13.54,.11h53.66c10.9,56.85,21.8,113.71,32.7,170.56Z"/></g><g id="Lake"><path class="cls-3" d="M792,481.3c-104.36-15-243.37-24.15-396-24.15S104.36,466.3,0,481.3v130.7H792v-130.7Z"/></g><g id="Board1"><g><path class="cls-6" d="M390.96,514.08c0-7.22,5.33-12.55,12.61-12.55s12.61,5.33,12.61,12.55-5.39,12.5-12.61,12.5-12.61-5.27-12.61-12.5Zm4.24,0c0,5.85,4.13,8.83,8.37,8.83s8.37-3.04,8.37-8.83-4.01-8.88-8.37-8.88-8.37,3.09-8.37,8.88Z"/><path class="cls-6" d="M430.72,489.66v68.44h21.09v8.03h-29.58v-76.47h8.48Z"/><path class="cls-6" d="M359.09,526.34h31.87v1.83c0,8.48-2.52,17.66-7.34,24.19-2.29,3.1-10.89,13.76-28.43,13.76-22.7,0-39.67-17.31-39.67-39.55,0-4.15,.64-16.67,10.49-27.18,11.55-12.34,26.87-12.4,29.41-12.37,.04,2.68,.08,5.35,.11,8.03-2.89-.03-12.14,.26-20.29,7.04-10.36,8.62-11.01,21.12-11.01,24.6,0,20.86,16.62,31.41,31.07,31.41,10.2,0,19.03-5.16,23.39-12.84,1.38-2.41,2.87-6.08,3.09-10.89h-22.7v-8.03Z"/><rect class="cls-6" x="353.24" y="487.02" width="123.24" height="8.03"/><rect class="cls-6" x="315.52" y="574.15" width="160.95" height="8.03"/><rect class="cls-6" x="447.75" y="558.1" width="28.73" height="8.03"/></g></g></svg>