<?xml version="1.0" encoding="UTF-8"?>
<svg id="Layer_2" data-name="Layer 2" xmlns="http://www.w3.org/2000/svg" viewBox="0 0 93.18 135.28">
  <defs>
    <style>
      .cls-1 {
        fill: #426256;
      }

      .cls-2 {
        fill: #fff;
      }

      .cls-3 {
        fill: #75ad98;
      }

      .cls-4 {
        fill: #5f8f7d;
      }

      .cls-5 {
        fill: #887ba3;
      }
    </style>
  </defs>
  <g id="Layer_1-2" data-name="Layer 1">
    <rect class="cls-5" width="93.18" height="135.28" rx="13.11" ry="13.11" transform="translate(93.18 135.28) rotate(180)"/>
    <path class="cls-2" d="M70.6,81.83c-.14,.02-.27,.04-.41,.06,.03-4.12,.06-8.23,.09-12.35-7.97-6.72-15.94-13.44-23.9-20.16-10.26,4.4-20.51,8.79-30.77,13.19-.03,6.54-.05,13.08-.08,19.61-.15,0-.3-.01-.45-.02,.02,.62,.04,1.23,.06,1.85,10.48,1.2,20.97,2.39,31.45,3.59,7.44-1.38,14.89-2.76,22.33-4.14l1.68-.31v-1.32Z"/>
    <g>
      <path class="cls-3" d="M46.48,85.7c-10-.89-20-1.78-30-2.67,0-6.69-.02-13.39-.02-20.08,9.94-4.25,19.89-8.5,29.83-12.75,.06,11.83,.13,23.67,.19,35.5Z"/>
      <path class="cls-4" d="M46.48,85.69c7.64-1.1,15.29-2.2,22.93-3.31v-12.65c-7.71-6.51-15.41-13.03-23.12-19.54,.06,11.83,.13,23.66,.19,35.49Z"/>
      <path class="cls-3" d="M46.5,86.8c-10.21-1.15-20.43-2.29-30.64-3.44v-.92c10.2,1.09,20.41,2.18,30.61,3.27,7.78-1.22,15.55-2.43,23.33-3.65,0,.21,0,.41,.01,.62-7.77,1.38-15.54,2.76-23.31,4.13Z"/>
      <path class="cls-1" d="M17.45,64.13c9.14-3.83,18.29-7.65,27.43-11.48-.11,10.59-.22,21.18-.34,31.78-9.03-.87-18.06-1.74-27.1-2.62v-17.68Z"/>
      <rect class="cls-3" x="22.54" y="61.2" width="1.56" height="22.11"/>
      <rect class="cls-3" x="37.53" y="54.91" width="1.21" height="30.12"/>
      <rect class="cls-3" x="30.82" y="57.93" width=".61" height="26.76"/>
      <rect class="cls-3" x="30.56" y="50.55" width="1.21" height="30.12" transform="translate(87.81 20.14) rotate(76.66)"/>
      <rect class="cls-3" x="31.27" y="56.73" width=".28" height="30.12" transform="translate(99.26 32.58) rotate(83.6)"/>
    </g>
  </g>
</svg>