<?xml version="1.0" encoding="UTF-8"?><svg id="Layer_2" xmlns="http://www.w3.org/2000/svg" viewBox="0 0 250.08 147.85"><defs><style>.cls-1{fill:#231f20;}</style></defs><g id="Board1"><g><path class="cls-1" d="M117.2,42.04c0-11.22,8.28-19.5,19.59-19.5s19.59,8.28,19.59,19.5-8.37,19.42-19.59,19.42-19.59-8.19-19.59-19.42Zm6.59,0c0,9.08,6.41,13.72,13,13.72s13-4.72,13-13.72-6.23-13.8-13-13.8-13,4.81-13,13.8Z"/><path class="cls-1" d="M178.99,4.1V110.44h32.77v12.47h-45.95V4.1h13.18Z"/><path class="cls-1" d="M67.69,61.1h49.52v2.85c0,13.18-3.92,27.43-11.4,37.58-3.56,4.81-16.92,21.37-44.17,21.37C26.36,122.91,0,96.01,0,61.46c0-6.44,1-25.9,16.3-42.24C34.25,.05,58.05-.05,61.99,0c.06,4.16,.12,8.31,.18,12.47-4.48-.04-18.86,.41-31.52,10.94C14.54,36.8,13.54,56.23,13.54,61.64c0,32.42,25.83,48.81,48.27,48.81,15.85,0,29.57-8.02,36.34-19.95,2.14-3.74,4.45-9.44,4.81-16.92h-35.27v-12.47Z"/><rect class="cls-1" x="58.6" y="0" width="191.48" height="12.47"/><rect class="cls-1" y="135.38" width="250.08" height="12.47"/><rect class="cls-1" x="205.44" y="110.44" width="44.64" height="12.47"/></g></g></svg>